<svg width="48" height="48" viewBox="0 0 48 48" fill="none" xmlns="http://www.w3.org/2000/svg">
<rect width="48" height="48" rx="22" fill="white"/>
<path fill-rule="evenodd" clip-rule="evenodd" d="M37.2517 24.4387C37.2517 24.19 37.1529 23.9516 36.9771 23.7758C36.8013 23.6 36.5628 23.5012 36.3142 23.5012H14.2023L20.1029 17.6024C20.1901 17.5153 20.2592 17.4118 20.3064 17.2979C20.3536 17.184 20.3779 17.062 20.3779 16.9387C20.3779 16.8154 20.3536 16.6934 20.3064 16.5795C20.2592 16.4656 20.1901 16.3621 20.1029 16.2749C20.0158 16.1878 19.9123 16.1186 19.7984 16.0715C19.6845 16.0243 19.5624 16 19.4392 16C19.3159 16 19.1938 16.0243 19.08 16.0715C18.9661 16.1186 18.8626 16.1878 18.7754 16.2749L11.2754 23.7749C11.1881 23.862 11.1189 23.9655 11.0716 24.0794C11.0243 24.1933 11 24.3154 11 24.4387C11 24.562 11.0243 24.6841 11.0716 24.798C11.1189 24.9119 11.1881 25.0153 11.2754 25.1024L18.7754 32.6024C18.8626 32.6896 18.9661 32.7587 19.08 32.8059C19.1938 32.8531 19.3159 32.8774 19.4392 32.8774C19.5624 32.8774 19.6845 32.8531 19.7984 32.8059C19.9123 32.7587 20.0158 32.6896 20.1029 32.6024C20.1901 32.5153 20.2592 32.4118 20.3064 32.2979C20.3536 32.184 20.3779 32.062 20.3779 31.9387C20.3779 31.8154 20.3536 31.6934 20.3064 31.5795C20.2592 31.4656 20.1901 31.3621 20.1029 31.2749L14.2023 25.3762H36.3142C36.5628 25.3762 36.8013 25.2774 36.9771 25.1016C37.1529 24.9258 37.2517 24.6873 37.2517 24.4387Z" fill="#606470"/>
</svg>
