<svg width="29" height="29" viewBox="0 0 29 29" fill="none" xmlns="http://www.w3.org/2000/svg">
<g clip-path="url(#clip0_946_86637)">
<rect x="29" y="4" width="43" height="4" transform="rotate(-180 29 4)" fill="white"/>
<rect x="29" y="9" width="43" height="4" transform="rotate(-180 29 9)" fill="white"/>
<rect x="29" y="14" width="43" height="4" transform="rotate(-180 29 14)" fill="white"/>
<rect x="29" y="19" width="43" height="4" transform="rotate(-180 29 19)" fill="white"/>
<rect x="29" y="24" width="43" height="4" transform="rotate(-180 29 24)" fill="white"/>
<rect x="29" y="29" width="43" height="4" transform="rotate(-180 29 29)" fill="white"/>
</g>
<defs>
<clipPath id="clip0_946_86637">
<path d="M29 1.90735e-06C29 16.0163 16.0163 29 -1.90735e-06 29L6.27912e-07 -6.27912e-07L29 1.90735e-06Z" fill="white"/>
</clipPath>
</defs>
</svg>
