<svg width="16" height="16" viewBox="0 0 16 16" fill="none" xmlns="http://www.w3.org/2000/svg">
<path d="M2.66663 10.6666C2.66663 11.2533 2.92663 11.7799 3.33329 12.1466V13.9999H5.33329V12.6666H10.6666V13.9999H12.6666V12.1466C13.0733 11.7799 13.3333 11.2533 13.3333 10.6666V3.99992C13.3333 1.66659 10.9466 1.33325 7.99996 1.33325C5.05329 1.33325 2.66663 1.66659 2.66663 3.99992V10.6666ZM4.99996 11.3333C4.44663 11.3333 3.99996 10.8866 3.99996 10.3333C3.99996 9.77992 4.44663 9.33325 4.99996 9.33325C5.55329 9.33325 5.99996 9.77992 5.99996 10.3333C5.99996 10.8866 5.55329 11.3333 4.99996 11.3333ZM11 11.3333C10.4466 11.3333 9.99996 10.8866 9.99996 10.3333C9.99996 9.77992 10.4466 9.33325 11 9.33325C11.5533 9.33325 12 9.77992 12 10.3333C12 10.8866 11.5533 11.3333 11 11.3333ZM12 7.33325H3.99996V3.99992H12V7.33325Z" fill="#7550CC"/>
</svg>
