<svg width="30" height="30" viewBox="0 0 30 30" fill="none" xmlns="http://www.w3.org/2000/svg">
<path d="M26.2502 24.375H3.75024C3.25296 24.375 2.77605 24.1775 2.42442 23.8258C2.07279 23.4742 1.87524 22.9973 1.87524 22.5V9.375C1.87524 8.87772 2.07279 8.40081 2.42442 8.04918C2.77605 7.69754 3.25296 7.5 3.75024 7.5H26.2502C26.7475 7.5 27.2244 7.69754 27.5761 8.04918C27.9277 8.40081 28.1252 8.87772 28.1252 9.375V22.5C28.1252 22.9973 27.9277 23.4742 27.5761 23.8258C27.2244 24.1775 26.7475 24.375 26.2502 24.375ZM3.75024 9.375V22.5H26.2502V9.375H3.75024Z" fill="#545963"/>
<path d="M9.37524 18.75H19.6877V20.625H9.37524V18.75Z" fill="#545963"/>
<path d="M5.62524 11.25H7.50024V13.125H5.62524V11.25Z" fill="#545963"/>
<path d="M9.37524 11.25H11.2502V13.125H9.37524V11.25Z" fill="#545963"/>
<path d="M13.1252 11.25H15.0002V13.125H13.1252V11.25Z" fill="#545963"/>
<path d="M16.8752 11.25H18.7502V13.125H16.8752V11.25Z" fill="#545963"/>
<path d="M5.62524 18.75H7.50024V20.625H5.62524V18.75Z" fill="#545963"/>
<path d="M5.62524 15H7.50024V16.875H5.62524V15Z" fill="#545963"/>
<path d="M9.37524 15H11.2502V16.875H9.37524V15Z" fill="#545963"/>
<path d="M13.1252 15H15.0002V16.875H13.1252V15Z" fill="#545963"/>
<path d="M20.6252 11.25H24.3752V13.125H20.6252V11.25Z" fill="#545963"/>
<path d="M20.6252 15H24.3752V16.875H20.6252V15Z" fill="#545963"/>
<path d="M16.8752 15H18.7502V16.875H16.8752V15Z" fill="#545963"/>
<path d="M21.5627 18.75H24.3752V20.625H21.5627V18.75Z" fill="#545963"/>
</svg>
