<svg width="16" height="16" viewBox="0 0 16 16" fill="none" xmlns="http://www.w3.org/2000/svg">
<path d="M10.4167 2.66659C10.4167 3.02021 10.2762 3.35935 10.0261 3.60939C9.77609 3.85944 9.43696 3.99992 9.08333 3.99992C8.72971 3.99992 8.39057 3.85944 8.14052 3.60939C7.89048 3.35935 7.75 3.02021 7.75 2.66659C7.75 2.31296 7.89048 1.97382 8.14052 1.72378C8.39057 1.47373 8.72971 1.33325 9.08333 1.33325C9.43696 1.33325 9.77609 1.47373 10.0261 1.72378C10.2762 1.97382 10.4167 2.31296 10.4167 2.66659V2.66659Z" fill="#A6AAB4"/>
<path d="M8.5643 9.46564L10.2953 11.1736C10.3617 11.2391 10.4136 11.3178 10.4476 11.4046L11.3706 13.7563C11.4353 13.9209 11.4318 14.1045 11.3611 14.2666C11.2904 14.4286 11.1582 14.556 10.9936 14.6206C10.829 14.6853 10.6455 14.6819 10.4834 14.6111C10.3213 14.5404 10.1939 14.4083 10.1293 14.2436L9.25797 12.0233L6.28197 9.08664C6.21005 9.01573 6.15519 8.9294 6.12153 8.83418C6.08786 8.73896 6.07627 8.63733 6.08763 8.53697L6.32597 6.43031C5.7513 7.00164 5.30797 7.80464 4.9683 8.86897C4.9429 8.95382 4.90086 9.03275 4.84462 9.10117C4.78837 9.16958 4.71907 9.2261 4.64074 9.26743C4.56241 9.30876 4.47663 9.33407 4.38841 9.34188C4.30019 9.34968 4.2113 9.33984 4.12693 9.31291C4.04256 9.28598 3.9644 9.24251 3.89702 9.18504C3.82963 9.12757 3.77437 9.05725 3.73447 8.97819C3.69457 8.89912 3.67082 8.8129 3.6646 8.72455C3.65839 8.63621 3.66985 8.54751 3.6983 8.46364C4.32163 6.51031 5.35663 5.04831 7.0933 4.37797L7.10097 4.37497C7.5433 4.21064 8.0033 4.22397 8.4133 4.43564C8.80697 4.63931 9.0873 4.99097 9.27097 5.38497C9.3483 5.55097 9.41963 5.70597 9.48697 5.85164C9.64963 6.20431 9.7863 6.50164 9.91797 6.76231C10.1023 7.12897 10.2506 7.37231 10.3973 7.54264C10.5333 7.70097 10.6683 7.79831 10.8406 7.86564C11.026 7.93797 11.2856 7.98797 11.6866 7.99997C11.7747 8.00174 11.8616 8.02095 11.9422 8.05649C12.0228 8.09203 12.0956 8.1432 12.1563 8.20704C12.2171 8.27088 12.2645 8.34612 12.296 8.42842C12.3275 8.51072 12.3423 8.59844 12.3397 8.68651C12.337 8.77458 12.3169 8.86125 12.2806 8.94151C12.2442 9.02177 12.1924 9.09404 12.1279 9.15412C12.0635 9.2142 11.9878 9.26092 11.9051 9.29156C11.8225 9.3222 11.7347 9.33616 11.6466 9.33264C11.165 9.31831 10.7373 9.25664 10.3556 9.10764C9.9613 8.95364 9.6503 8.71931 9.38563 8.41097C9.21897 8.21697 9.0723 7.99531 8.93563 7.75431L8.5643 9.46564V9.46564Z" fill="#A6AAB4"/>
<path d="M6.08764 10.0732L7.19264 11.1332L6.68397 12.8489C6.64463 12.9817 6.56495 13.0989 6.45597 13.1842L4.74464 14.5252C4.67569 14.5792 4.59679 14.6191 4.51243 14.6426C4.42807 14.6661 4.33991 14.6728 4.25298 14.6622C4.16605 14.6516 4.08205 14.6241 4.00578 14.581C3.92951 14.538 3.86247 14.4804 3.80847 14.4114C3.75448 14.3425 3.71459 14.2636 3.69109 14.1792C3.66759 14.0948 3.66093 14.0067 3.6715 13.9197C3.68207 13.8328 3.70966 13.7488 3.75269 13.6726C3.79573 13.5963 3.85336 13.5292 3.92231 13.4752L5.4663 12.2659L5.9313 10.6959L6.08764 10.0732V10.0732Z" fill="#A6AAB4"/>
</svg>
