<svg width="24" height="24" viewBox="0 0 24 24" fill="none" xmlns="http://www.w3.org/2000/svg">
<circle cx="12" cy="12" r="8" fill="#7550CC"/>
<path fill-rule="evenodd" clip-rule="evenodd" d="M8.22479 14.6975C7.92684 14.9954 7.92684 15.4785 8.2248 15.7765C8.52275 16.0744 9.00584 16.0744 9.3038 15.7765L12.0004 13.0799L14.6971 15.7766C14.9951 16.0745 15.4782 16.0745 15.7761 15.7766C16.0741 15.4786 16.0741 14.9955 15.7761 14.6976L13.0794 12.0009L15.7778 9.30247C16.0758 9.00451 16.0758 8.52143 15.7778 8.22347C15.4799 7.92551 14.9968 7.92551 14.6988 8.22347L12.0004 10.9219L9.30211 8.22357C9.00415 7.92561 8.52106 7.92561 8.2231 8.22357C7.92514 8.52152 7.92514 9.00461 8.2231 9.30257L10.9214 12.0009L8.22479 14.6975Z" fill="white"/>
</svg>
