<svg width="30" height="30" viewBox="0 0 30 30" fill="none" xmlns="http://www.w3.org/2000/svg">
<circle cx="14.5" cy="15" r="8" fill="#7550CC"/>
<path fill-rule="evenodd" clip-rule="evenodd" d="M10.7252 17.6975C10.4272 17.9954 10.4272 18.4785 10.7252 18.7765C11.0231 19.0744 11.5062 19.0744 11.8042 18.7765L14.5008 16.0799L17.1975 18.7766C17.4955 19.0745 17.9785 19.0745 18.2765 18.7766C18.5745 18.4786 18.5745 17.9955 18.2765 17.6976L15.5798 15.0009L18.2782 12.3025C18.5762 12.0045 18.5762 11.5214 18.2782 11.2235C17.9802 10.9255 17.4971 10.9255 17.1992 11.2235L14.5008 13.9219L11.8025 11.2236C11.5045 10.9256 11.0214 10.9256 10.7235 11.2236C10.4255 11.5215 10.4255 12.0046 10.7235 12.3026L13.4218 15.0009L10.7252 17.6975Z" fill="white"/>
</svg>
