<svg width="30" height="30" viewBox="0 0 30 30" fill="none" xmlns="http://www.w3.org/2000/svg">
<path d="M7.5 2.5C8.82608 2.5 10.0979 3.02678 11.0355 3.96447C11.9732 4.90215 12.5 6.17392 12.5 7.5V10H17.5V7.5C17.5 6.17392 18.0268 4.90215 18.9645 3.96447C19.9021 3.02678 21.1739 2.5 22.5 2.5C23.8261 2.5 25.0979 3.02678 26.0355 3.96447C26.9732 4.90215 27.5 6.17392 27.5 7.5C27.5 8.82608 26.9732 10.0979 26.0355 11.0355C25.0979 11.9732 23.8261 12.5 22.5 12.5H20V17.5H22.5C23.8261 17.5 25.0979 18.0268 26.0355 18.9645C26.9732 19.9021 27.5 21.1739 27.5 22.5C27.5 23.8261 26.9732 25.0979 26.0355 26.0355C25.0979 26.9732 23.8261 27.5 22.5 27.5C21.1739 27.5 19.9021 26.9732 18.9645 26.0355C18.0268 25.0979 17.5 23.8261 17.5 22.5V20H12.5V22.5C12.5 23.8261 11.9732 25.0979 11.0355 26.0355C10.0979 26.9732 8.82608 27.5 7.5 27.5C6.17392 27.5 4.90215 26.9732 3.96447 26.0355C3.02678 25.0979 2.5 23.8261 2.5 22.5C2.5 21.1739 3.02678 19.9021 3.96447 18.9645C4.90215 18.0268 6.17392 17.5 7.5 17.5H10V12.5H7.5C6.17392 12.5 4.90215 11.9732 3.96447 11.0355C3.02678 10.0979 2.5 8.82608 2.5 7.5C2.5 6.17392 3.02678 4.90215 3.96447 3.96447C4.90215 3.02678 6.17392 2.5 7.5 2.5V2.5ZM20 22.5C20 23.163 20.2634 23.7989 20.7322 24.2678C21.2011 24.7366 21.837 25 22.5 25C23.163 25 23.7989 24.7366 24.2678 24.2678C24.7366 23.7989 25 23.163 25 22.5C25 21.837 24.7366 21.2011 24.2678 20.7322C23.7989 20.2634 23.163 20 22.5 20H20V22.5ZM17.5 12.5H12.5V17.5H17.5V12.5ZM7.5 20C6.83696 20 6.20107 20.2634 5.73223 20.7322C5.26339 21.2011 5 21.837 5 22.5C5 23.163 5.26339 23.7989 5.73223 24.2678C6.20107 24.7366 6.83696 25 7.5 25C8.16304 25 8.79893 24.7366 9.26777 24.2678C9.73661 23.7989 10 23.163 10 22.5V20H7.5ZM10 7.5C10 6.83696 9.73661 6.20107 9.26777 5.73223C8.79893 5.26339 8.16304 5 7.5 5C6.83696 5 6.20107 5.26339 5.73223 5.73223C5.26339 6.20107 5 6.83696 5 7.5C5 8.16304 5.26339 8.79893 5.73223 9.26777C6.20107 9.73661 6.83696 10 7.5 10H10V7.5ZM22.5 10C23.163 10 23.7989 9.73661 24.2678 9.26777C24.7366 8.79893 25 8.16304 25 7.5C25 6.83696 24.7366 6.20107 24.2678 5.73223C23.7989 5.26339 23.163 5 22.5 5C21.837 5 21.2011 5.26339 20.7322 5.73223C20.2634 6.20107 20 6.83696 20 7.5V10H22.5Z" fill="#545963"/>
</svg>
