<svg width="33" height="43" viewBox="0 0 33 43" fill="none" xmlns="http://www.w3.org/2000/svg">
<path fill-rule="evenodd" clip-rule="evenodd" d="M19.9441 33.3772C26.8469 31.7962 32 25.5645 32 18.1178C32 9.47613 25.0604 2.4707 16.5 2.4707C7.93959 2.4707 1 9.47613 1 18.1178C1 25.938 6.6831 32.4183 14.1076 33.5796L17.3158 42.0001L19.9441 33.3772Z" fill="#7550CC"/>
<path d="M19.9441 33.3772L19.8324 32.8898C19.6579 32.9298 19.518 33.0601 19.4658 33.2314L19.9441 33.3772ZM14.1076 33.5796L14.5748 33.4016C14.5109 33.2339 14.3621 33.1133 14.1848 33.0856L14.1076 33.5796ZM17.3158 42.0001L16.8486 42.1781C16.9246 42.3778 17.1192 42.5071 17.3328 42.4998C17.5464 42.4925 17.7318 42.3503 17.7941 42.1459L17.3158 42.0001ZM31.5 18.1178C31.5 25.3293 26.51 31.3604 19.8324 32.8898L20.0557 33.8646C27.1838 32.232 32.5 25.7996 32.5 18.1178H31.5ZM16.5 2.9707C24.7798 2.9707 31.5 9.74781 31.5 18.1178H32.5C32.5 9.20445 25.341 1.9707 16.5 1.9707V2.9707ZM1.5 18.1178C1.5 9.74781 8.22017 2.9707 16.5 2.9707V1.9707C7.659 1.9707 0.5 9.20445 0.5 18.1178H1.5ZM14.1848 33.0856C7.0034 31.9624 1.5 25.6914 1.5 18.1178H0.5C0.5 26.1847 6.36279 32.8743 14.0303 34.0736L14.1848 33.0856ZM13.6403 33.7576L16.8486 42.1781L17.783 41.8221L14.5748 33.4016L13.6403 33.7576ZM17.7941 42.1459L20.4223 33.523L19.4658 33.2314L16.8375 41.8543L17.7941 42.1459Z" fill="white"/>
<path d="M21.2359 15.9486H17.1879V20.8606C17.1879 22.7006 17.6999 23.2126 19.4759 23.2126H21.7479C23.2999 23.2126 23.7639 22.5406 23.9719 20.1566C23.4919 20.0446 22.7079 19.7406 22.3079 19.4366C22.2439 21.2286 22.1479 21.5166 21.5879 21.5166H19.7319C19.1079 21.5166 18.9959 21.4366 18.9959 20.8606V17.5806H21.2359V17.9966H23.0759V11.8206H17.0439V13.4846H21.2359V15.9486ZM14.1639 20.9726H16.4359V19.3246H14.1639V17.5966H16.5799V15.9486H13.8119V14.4446H16.1799V12.8126H13.8119V11.2446H12.0359V12.8126H9.65192V14.4446H12.0359V15.9486H9.21992V17.5966H12.4199V22.5726C12.0039 22.1086 11.6839 21.5166 11.4279 20.7326C11.4599 20.0606 11.4919 19.3726 11.5079 18.6686L9.76392 18.5406C9.73192 21.2766 9.57192 23.9326 8.78792 25.5486C9.20392 25.7246 10.0359 26.1406 10.3719 26.3646C10.7239 25.5806 10.9639 24.6366 11.1239 23.5646C12.3719 25.3566 14.2759 25.7406 17.2519 25.7406H23.4279C23.5399 25.1806 23.8599 24.3006 24.1479 23.8686C22.7079 23.9326 18.4679 23.9326 17.2519 23.9166C16.0199 23.9166 15.0119 23.8526 14.1639 23.6126V20.9726Z" fill="white"/>
</svg>
