<svg width="24" height="24" viewBox="0 0 24 24" fill="none" xmlns="http://www.w3.org/2000/svg">
<path d="M12.0012 2C16.5473 2 20.2323 5.68501 20.2323 10.2311C20.2323 13.7093 17.7883 17.4999 12.9636 21.6433C12.6953 21.8737 12.3532 22.0003 11.9996 22C11.6459 21.9997 11.3041 21.8725 11.0362 21.6416L10.7171 21.3647C6.10597 17.3293 3.77002 13.6316 3.77002 10.2311C3.77002 5.68501 7.45503 2 12.0012 2ZM12.0012 7.06531C11.1615 7.06531 10.3563 7.39885 9.76258 7.99256C9.16887 8.58626 8.83533 9.3915 8.83533 10.2311C8.83533 11.0708 9.16887 11.876 9.76258 12.4697C10.3563 13.0634 11.1615 13.397 12.0012 13.397C12.8408 13.397 13.646 13.0634 14.2397 12.4697C14.8334 11.876 15.167 11.0708 15.167 10.2311C15.167 9.3915 14.8334 8.58626 14.2397 7.99256C13.646 7.39885 12.8408 7.06531 12.0012 7.06531Z" fill="#A6AAB4"/>
</svg>
