<svg width="16" height="16" viewBox="0 0 16 16" fill="none" xmlns="http://www.w3.org/2000/svg">
<path d="M7.93488 0C11.5718 0 14.5198 2.94801 14.5198 6.5849C14.5198 9.36745 12.5646 12.3999 8.70481 15.7146C8.49019 15.899 8.21655 16.0002 7.93362 16C7.65068 15.9998 7.37722 15.898 7.16293 15.7133L6.90764 15.4917C3.21874 12.2635 1.34998 9.30531 1.34998 6.5849C1.34998 2.94801 4.29799 0 7.93488 0ZM7.93488 4.05225C7.26318 4.05225 6.61899 4.31908 6.14402 4.79405C5.66906 5.26901 5.40222 5.9132 5.40222 6.5849C5.40222 7.25661 5.66906 7.9008 6.14402 8.37576C6.61899 8.85073 7.26318 9.11756 7.93488 9.11756C8.60658 9.11756 9.25077 8.85073 9.72574 8.37576C10.2007 7.9008 10.4675 7.25661 10.4675 6.5849C10.4675 5.9132 10.2007 5.26901 9.72574 4.79405C9.25077 4.31908 8.60658 4.05225 7.93488 4.05225Z" fill="#C6B7EA"/>
</svg>
