<svg width="24" height="24" viewBox="0 0 24 24" fill="none" xmlns="http://www.w3.org/2000/svg">
<rect x="4" y="4" width="16" height="16" rx="2" fill="#9D83DB"/>
<path d="M11.0936 11.1918H13.7212C13.8443 11.1918 13.9623 11.1429 14.0494 11.0559C14.1364 10.9688 14.1853 10.8508 14.1853 10.7277C14.1853 10.6047 14.1364 10.4866 14.0494 10.3996C13.9623 10.3126 13.8443 10.2637 13.7212 10.2637H11.0936V11.1918Z" fill="white"/>
<path d="M14.067 12.9792L15.2206 16.1477C15.3217 16.4248 15.628 16.5683 15.905 16.4672C16.182 16.3661 16.3256 16.0598 16.2245 15.7828L15.0709 12.6143L14.067 12.9792V12.9792Z" fill="white"/>
<path d="M11.0935 8.54572C11.7965 8.54572 12.3664 7.97584 12.3664 7.27286C12.3664 6.56988 11.7965 6 11.0935 6C10.3906 6 9.82068 6.56988 9.82068 7.27286C9.82068 7.97584 10.3906 8.54572 11.0935 8.54572Z" fill="white"/>
<path d="M11.678 13.5726C11.1483 13.6656 10.6387 13.3087 10.5457 12.7799L10.0776 10.1271C9.9846 9.59729 10.3415 9.08774 10.8702 8.99473C11.4 8.90171 11.9096 9.2586 12.0026 9.78736L12.4707 12.4402C12.5647 12.97 12.2078 13.4796 11.678 13.5726V13.5726Z" fill="white"/>
<path d="M14.3817 13.5879H11.5236C11.1212 13.5879 10.7926 13.2593 10.7926 12.8569C10.7926 12.4546 11.1212 12.126 11.5236 12.126H14.3807C14.7831 12.126 15.1116 12.4546 15.1116 12.8569C15.1126 13.2583 14.7831 13.5879 14.3817 13.5879V13.5879Z" fill="white"/>
<path d="M11.133 17.1678C9.46079 17.1678 8.09998 15.807 8.09998 14.1348C8.09998 13.1268 8.57717 12.1937 9.37789 11.6396C9.44401 11.594 9.52554 11.5764 9.60458 11.5909C9.68362 11.6053 9.75372 11.6504 9.79948 11.7165C9.84512 11.7826 9.86267 11.8641 9.84826 11.9432C9.83386 12.0222 9.78868 12.0923 9.72265 12.1381C9.07661 12.5859 8.70658 13.3129 8.70658 14.1348C8.70658 15.4724 9.79544 16.5612 11.133 16.5612C12.3563 16.5612 13.3916 15.6473 13.5412 14.4341C13.5614 14.2672 13.7131 14.149 13.8789 14.1702C14.0447 14.1904 14.163 14.3421 14.1428 14.5079C13.9568 16.0244 12.6627 17.1678 11.133 17.1678V17.1678Z" fill="white" stroke="white" stroke-width="0.5"/>
</svg>
