<svg width="116" height="80" viewBox="0 0 116 80" fill="none" xmlns="http://www.w3.org/2000/svg">
<g clip-path="url(#clip0_78_18398)">
<path d="M91.2727 50.4488C91.4725 51.2751 91.6959 52.1689 91.8769 53.0354C92.0579 53.9019 92.2462 54.7934 92.3934 55.6736C92.7103 57.3948 92.9005 59.1373 92.9624 60.8868L92.9646 61.5197L92.9621 61.7565C92.9506 61.8216 92.9357 61.9059 92.9451 61.9867C92.8937 62.3624 92.8202 62.7348 92.7248 63.1017C92.5098 63.8975 92.2275 64.7405 91.8958 65.5747C91.2697 67.2537 90.5465 68.9708 89.8205 70.6597L91.6386 71.775C92.8439 70.2669 93.9266 68.6636 94.8763 66.9806C95.3747 66.1054 95.8131 65.1971 96.1886 64.2618C96.3978 63.7446 96.5654 63.2114 96.6899 62.6672C96.7169 62.5139 96.7426 62.3683 96.7717 62.2035C96.8007 62.0387 96.8332 61.8547 96.8255 61.7427L96.8845 60.9626C96.9449 59.9551 96.9434 58.9448 96.8801 57.9375C96.8359 56.9413 96.726 55.961 96.6141 54.9922C96.5022 54.0234 96.3191 53.0578 96.1142 52.104C96.0136 51.6275 95.8896 51.1507 95.7922 50.6787C95.6948 50.2066 95.5635 49.7483 95.403 49.2334L91.2727 50.4488Z" fill="#FFCCAC"/>
<path d="M90.0135 70.1606L88.2709 71.3557L91.2409 73.4673C91.2409 73.4673 92.2694 72.2238 91.9452 70.8772L90.0135 70.1606Z" fill="#E4897B"/>
<path d="M86.688 73.3143L89.227 74.9299L91.2397 73.4511L88.2708 71.3554L86.688 73.3143Z" fill="#E4897B"/>
<path opacity="0.4" d="M39.7445 55.1877C43.7722 55.4503 47.787 54.5051 51.2814 52.4716C54.7757 50.438 57.5927 47.4075 59.3763 43.763C61.1598 40.1185 61.8298 36.0238 61.3016 31.9964C60.7734 27.9691 59.0707 24.1899 56.4087 21.1367C53.7467 18.0835 50.245 15.8933 46.3462 14.8431C42.4474 13.7928 38.3266 13.9297 34.5047 15.2363C30.6828 16.5429 27.3315 18.9606 24.8744 22.1837C22.4172 25.4069 20.9646 29.2908 20.7001 33.3445C20.5244 36.0378 20.8777 38.7394 21.7399 41.295C22.602 43.8506 23.9561 46.2101 25.7247 48.2387C27.4934 50.2672 29.6419 51.925 32.0474 53.1174C34.453 54.3098 37.0686 55.0133 39.7445 55.1877V55.1877Z" fill="#FAFAFA"/>
<path opacity="0.4" d="M31.5165 16.5314L57.7163 46.5919C57.8945 46.334 58.0699 46.0757 58.2369 45.8159C59.3282 44.1193 60.1621 42.2684 60.711 40.3243V40.3243L38.0811 14.3595C35.7851 14.698 33.5643 15.4328 31.5165 16.5314V16.5314Z" fill="#FAFAFA"/>
<path opacity="0.4" d="M22.555 26.0318L47.188 54.2923C50.1713 53.3502 52.8992 51.7295 55.1605 49.5559L28.2646 18.6952C25.8283 20.6684 23.8748 23.1785 22.555 26.0318Z" fill="#FAFAFA"/>
<path d="M22.1277 20.628C25.6684 15.6976 30.9582 12.3273 36.9005 11.2159C42.8429 10.1045 48.9819 11.3372 54.045 14.6584C59.1081 17.9797 62.7069 23.1348 64.0955 29.055C65.484 34.9753 64.5557 41.2066 61.503 46.4572C63.2506 47.4491 64.9674 48.4848 66.6691 49.5409C69.1221 51.0691 71.5426 52.6397 73.9307 54.2529C76.3157 55.8722 78.6856 57.512 81.0209 59.2007C82.1947 60.0346 83.3458 60.8991 84.5115 61.746C85.1241 62.1521 85.6516 62.6751 86.0641 63.2855C86.2862 63.6224 86.4705 63.983 86.6135 64.3608C86.7902 64.809 86.9006 65.281 86.941 65.7615C87.0044 66.6258 86.7584 67.4844 86.2475 68.1821C85.7367 68.8798 84.9947 69.3705 84.1557 69.5655C83.6904 69.6705 83.2125 69.7077 82.7367 69.6759C82.3346 69.6501 81.9367 69.5787 81.5506 69.463C80.85 69.247 80.1983 68.8946 79.6325 68.426C78.4824 67.5558 77.3199 66.7066 76.1812 65.8211C73.8982 64.0809 71.6252 62.2846 69.3864 60.4742C67.1475 58.6637 64.9174 56.7881 62.7551 54.887C61.2615 53.5668 59.7552 52.2211 58.2908 50.8337C54.2107 55.3201 48.5724 58.0549 42.5441 58.4714C36.5158 58.8879 30.5597 56.9541 25.9099 53.0709C21.2602 49.1876 18.2733 43.6525 17.5681 37.6124C16.8629 31.5724 18.4936 25.4905 22.1221 20.627L22.1277 20.628ZM30.0555 49.7386C33.0129 51.932 36.5502 53.1935 40.2202 53.3635C43.8902 53.5335 47.5279 52.6044 50.6736 50.6937C53.8192 48.783 56.3314 45.9764 57.8926 42.6289C59.4537 39.2815 59.9937 35.5434 59.4442 31.8873C58.8947 28.2312 57.2805 24.8214 54.8055 22.089C52.3306 19.3566 49.1061 17.4242 45.5399 16.5363C41.9736 15.6484 38.2257 15.8448 34.7701 17.1007C31.3144 18.3566 28.3062 20.6156 26.1258 23.5919C24.6778 25.5686 23.6308 27.8129 23.0446 30.1968C22.4584 32.5806 22.3445 35.0573 22.7095 37.4853C23.0744 39.9133 23.911 42.2452 25.1714 44.3476C26.4319 46.45 28.0915 48.2819 30.0555 49.7386Z" fill="#7550CC"/>
<path opacity="0.3" d="M22.1277 20.628C25.6684 15.6976 30.9582 12.3273 36.9005 11.2159C42.8429 10.1045 48.9819 11.3372 54.045 14.6584C59.1081 17.9797 62.7069 23.1348 64.0955 29.055C65.484 34.9753 64.5557 41.2066 61.503 46.4572C63.2506 47.4491 64.9674 48.4848 66.6691 49.5409C69.1221 51.0691 71.5426 52.6397 73.9307 54.2529C76.3157 55.8722 78.6856 57.512 81.0209 59.2007C82.1947 60.0346 83.3458 60.8991 84.5115 61.746C85.1241 62.1521 85.6516 62.6751 86.0641 63.2855C86.2862 63.6224 86.4705 63.983 86.6135 64.3608C86.7902 64.809 86.9006 65.281 86.941 65.7615C87.0044 66.6258 86.7584 67.4844 86.2475 68.1821C85.7367 68.8798 84.9947 69.3705 84.1557 69.5655C83.6904 69.6705 83.2125 69.7077 82.7367 69.6759C82.3346 69.6501 81.9367 69.5787 81.5506 69.463C80.85 69.247 80.1983 68.8946 79.6325 68.426C78.4824 67.5558 77.3199 66.7066 76.1812 65.8211C73.8982 64.0809 71.6252 62.2846 69.3864 60.4742C67.1475 58.6637 64.9174 56.7881 62.7551 54.887C61.2615 53.5668 59.7552 52.2211 58.2908 50.8337C54.2107 55.3201 48.5724 58.0549 42.5441 58.4714C36.5158 58.8879 30.5597 56.9541 25.9099 53.0709C21.2602 49.1876 18.2733 43.6525 17.5681 37.6124C16.8629 31.5724 18.4936 25.4905 22.1221 20.627L22.1277 20.628ZM30.0555 49.7386C33.0129 51.932 36.5502 53.1935 40.2202 53.3635C43.8902 53.5335 47.5279 52.6044 50.6736 50.6937C53.8192 48.783 56.3314 45.9764 57.8926 42.6289C59.4537 39.2815 59.9937 35.5434 59.4442 31.8873C58.8947 28.2312 57.2805 24.8214 54.8055 22.089C52.3306 19.3566 49.1061 17.4242 45.5399 16.5363C41.9736 15.6484 38.2257 15.8448 34.7701 17.1007C31.3144 18.3566 28.3062 20.6156 26.1258 23.5919C24.6778 25.5686 23.6308 27.8129 23.0446 30.1968C22.4584 32.5806 22.3445 35.0573 22.7095 37.4853C23.0744 39.9133 23.911 42.2452 25.1714 44.3476C26.4319 46.45 28.0915 48.2819 30.0555 49.7386Z" fill="black"/>
<path d="M79.8822 36.0415C79.8822 36.2712 79.7623 36.458 79.6115 36.458C79.4607 36.458 79.3408 36.2712 79.3408 36.0415C79.3408 35.8118 79.4607 35.625 79.6115 35.625C79.7623 35.625 79.8822 35.8274 79.8822 36.0415Z" fill="#37206D"/>
<path d="M79.7735 36.4578C79.4998 37.1627 79.1315 37.8267 78.6791 38.4312C78.8355 38.5439 79.0145 38.6207 79.2036 38.6564C79.3926 38.692 79.5872 38.6856 79.7735 38.6375V36.4578Z" fill="#FFCCAC"/>
<path d="M79.7735 36.4578C79.4998 37.1627 79.1315 37.8267 78.6791 38.4312C78.8355 38.5439 79.0145 38.6207 79.2036 38.6564C79.3926 38.692 79.5872 38.6856 79.7735 38.6375V36.4578Z" fill="#DE5753" fill-opacity="0.5"/>
<path d="M80.6827 34.7607C80.7043 34.7607 80.7256 34.7558 80.745 34.7464C80.7644 34.7369 80.7814 34.7232 80.7948 34.7062C80.815 34.6765 80.823 34.6401 80.8173 34.6046C80.8115 34.5691 80.7924 34.5372 80.7639 34.5155C80.5936 34.3855 80.3946 34.2988 80.1838 34.2629C79.9731 34.227 79.7568 34.2428 79.5534 34.3092C79.5352 34.3142 79.5182 34.323 79.5035 34.335C79.4888 34.3471 79.4768 34.3621 79.4683 34.3791C79.4597 34.396 79.4548 34.4147 79.4539 34.4337C79.4529 34.4527 79.4559 34.4717 79.4627 34.4895C79.4695 34.5073 79.4799 34.5234 79.4933 34.5369C79.5067 34.5504 79.5227 34.5609 79.5404 34.5677C79.558 34.5746 79.5769 34.5776 79.5958 34.5767C79.6148 34.5757 79.6332 34.5708 79.6501 34.5622C79.8117 34.5123 79.9827 34.5022 80.1489 34.5327C80.3152 34.5631 80.4717 34.6333 80.6053 34.7373C80.6283 34.7526 80.6552 34.7608 80.6827 34.7607V34.7607Z" fill="#37206D"/>
<path d="M87.694 37.7734C87.3072 39.8637 86.8819 43.6978 88.3359 45.0952C88.3359 45.0952 87.7674 47.2166 83.9041 47.2166C79.6501 47.2166 81.8776 45.0952 81.8776 45.0952C84.198 44.5346 84.1322 42.8064 83.73 41.1793L87.694 37.7734Z" fill="#FFCCAC"/>
<path d="M87.694 37.7734C87.3072 39.8637 86.8819 43.6978 88.3359 45.0952C88.3359 45.0952 87.7674 47.2166 83.9041 47.2166C79.6501 47.2166 81.8776 45.0952 81.8776 45.0952C84.198 44.5346 84.1322 42.8064 83.73 41.1793L87.694 37.7734Z" fill="#E4897B" fill-opacity="0.3"/>
<path d="M90.0723 46.1969C89.6121 45.4768 90.3856 43.7291 90.3856 43.7291C90.3856 43.7291 83.5483 41.9969 80.7522 44.6555C80.1721 45.2043 80.8141 46.0139 80.8141 46.0139L90.0723 46.1969Z" fill="#7550CC"/>
<path opacity="0.1" d="M90.0723 46.1969C89.6121 45.4768 90.3856 43.7291 90.3856 43.7291C90.3856 43.7291 83.5483 41.9969 80.7522 44.6555C80.1721 45.2043 80.8141 46.0139 80.8141 46.0139L90.0723 46.1969Z" fill="black"/>
<path d="M93.9355 45.9475C96.3989 47.1153 97.8027 54.9391 97.8027 54.9391L91.7814 57.3563C90.9 55.1902 90.1876 52.9583 89.6506 50.6808C88.823 47.0763 91.414 44.7409 93.9355 45.9475Z" fill="#37206D"/>
<path d="M90.7417 50.3578C92.2306 51.8759 92.9112 54.8497 93.209 56.7843L91.7665 57.3643C90.9102 55.2596 90.2121 53.0932 89.6782 50.8833C89.8058 50.0581 90.1229 49.7272 90.7417 50.3578Z" fill="#203048"/>
<path d="M77.5074 45.8932C77.5074 45.8932 74.4832 49.3341 77.3372 70.6103H92.5317C92.6361 68.2748 91.1704 56.8115 93.4211 45.7492C91.742 45.4214 90.0431 45.2056 88.3357 45.103C86.1848 44.9745 84.0283 44.9745 81.8774 45.103C80.4026 45.2524 78.9416 45.5166 77.5074 45.8932V45.8932Z" fill="#37206D"/>
<path d="M76.1194 54.153L78.6795 49.7117C79.1737 51.7839 79.3755 53.9158 79.279 56.0447C79.2094 57.5706 77.821 63.2224 76.5719 64.0476C76.2404 60.7603 76.0894 57.4571 76.1194 54.153V54.153Z" fill="#203048"/>
<path d="M68.3227 64.1112L67.9362 59.5222L70.6418 61.6999L72.961 56.7222L77.2128 57.8888C74.4298 63.7999 72.4456 65.7962 71.8014 66.0555C68.7092 66.6777 68.1938 65.0186 68.3227 64.1112Z" fill="#FFCCAC"/>
<path d="M74.5074 56.7221L71.4998 59.8333L72.961 56.3333L74.5074 56.7221Z" fill="#FFCCAC"/>
<path d="M74.5074 56.7221L71.4998 59.8333L72.961 56.3333L74.5074 56.7221Z" fill="#E4897B" fill-opacity="0.5"/>
<path d="M81.3012 47.9795C82.1018 50.5913 78.8571 58.3802 78.8571 58.3802L72.395 56.7453C72.395 56.7453 72.6425 52.6972 74.1159 49.4859C76.3357 44.6437 80.3422 44.8461 81.3012 47.9795Z" fill="#37206D"/>
<path d="M87.5163 35.5471C87.3461 38.3769 87.3887 40.0468 85.9694 41.4986C83.8347 43.6901 80.358 42.3939 79.6851 39.5524C79.0779 37.0067 79.4569 32.8029 82.2104 31.6741C82.818 31.4272 83.4779 31.3398 84.1282 31.42C84.7785 31.5002 85.3979 31.7454 85.9283 32.1325C86.4587 32.5197 86.8826 33.0361 87.1604 33.6334C87.4382 34.2306 87.5606 34.8891 87.5163 35.5471V35.5471Z" fill="#FFCCAC"/>
<path d="M90.8261 35.0488C90.1261 37.6295 88.4787 40.6033 86.3478 40.7941C83.7026 41.0276 82.5076 38.2756 82.1596 35.4341C80.574 34.3404 81.4054 33.1376 79.816 32.9858C77.7741 32.7912 78.4277 29.031 81.1154 28.4277C81.1154 28.4277 80.2143 30.1209 82.1054 29.2646C83.9039 28.4043 85.9019 28.0557 87.8831 28.2564C87.8831 28.2564 85.4699 29.4709 87.829 30.0119C90.188 30.553 90.8918 32.0165 89.8051 32.9001C89.8051 32.904 91.2863 33.3517 90.8261 35.0488Z" fill="#37206D"/>
<path d="M83.7725 36.0179C83.7205 36.7214 83.4391 37.3878 82.9719 37.9136C82.3532 38.6025 81.7073 38.1744 81.5991 37.3375C81.4985 36.5862 81.7035 35.3212 82.4615 34.9397C83.2194 34.5583 83.8227 35.1694 83.7725 36.0179Z" fill="#FFCCAC"/>
<path d="M82.7287 70.6103C82.7287 70.6103 79.9598 90.7928 82.1409 98.8813C85.5982 111.688 98.8165 122.497 98.8165 122.497L103.299 119.539C103.299 119.539 92.0411 110.411 90.6643 99.6871C89.4268 90.061 92.5322 78.4186 92.5322 70.6064L82.7287 70.6103Z" fill="#7550CC"/>
<path opacity="0.1" d="M82.7287 70.6103C82.7287 70.6103 79.9598 90.7928 82.1409 98.8813C85.5982 111.688 98.8165 122.497 98.8165 122.497L103.299 119.539C103.299 119.539 92.0411 110.411 90.6643 99.6871C89.4268 90.061 92.5322 78.4186 92.5322 70.6064L82.7287 70.6103Z" fill="black"/>
<path d="M81.5831 82.1477C82.3202 81.2977 83.1318 80.5161 84.0079 79.8123C83.5361 86.3633 83.1493 96.0672 83.5786 102.961C83.0014 101.639 82.5206 100.277 82.14 98.8853C81.0765 94.9345 81.1886 88.111 81.5831 82.1477Z" fill="#7550CC"/>
<path opacity="0.3" d="M81.5831 82.1477C82.3202 81.2977 83.1318 80.5161 84.0079 79.8123C83.5361 86.3633 83.1493 96.0672 83.5786 102.961C83.0014 101.639 82.5206 100.277 82.14 98.8853C81.0765 94.9345 81.1886 88.111 81.5831 82.1477Z" fill="black"/>
<path d="M77.3375 70.6104C77.3375 70.6104 73.0603 88.866 72.7587 97.589C72.4183 107.367 75.8099 130.434 75.8099 130.434H80.6246C80.6246 130.434 81.2163 107.188 81.429 98.2819C81.6649 88.5702 87.3266 70.6104 87.3266 70.6104H77.3375Z" fill="#7550CC"/>
<path opacity="0.1" d="M77.3375 70.6104C77.3375 70.6104 73.0603 88.866 72.7587 97.589C72.4183 107.367 75.8099 130.434 75.8099 130.434H80.6246C80.6246 130.434 81.2163 107.188 81.429 98.2819C81.6649 88.5702 87.3266 70.6104 87.3266 70.6104H77.3375Z" fill="black"/>
</g>
<defs>
<clipPath id="clip0_78_18398">
<rect width="116" height="80" fill="white"/>
</clipPath>
</defs>
</svg>
