<svg width="116" height="80" viewBox="0 0 116 80" fill="none" xmlns="http://www.w3.org/2000/svg">
<g clip-path="url(#clip0_36_6346)">
<path d="M42.3738 31.8739L58.3456 27.2591L74.8739 13.3164C75.2994 12.9564 76.0194 12.8909 76.4776 13.1855L115.982 35.9978C116.44 36.2596 116.506 36.7833 116.08 37.1106L99.5518 51.0532L83.5799 55.6681L66.2988 70.2653L48.6251 76.0911C48.1014 76.2548 47.3159 76.1893 46.8577 75.8947L45.0576 74.8474L7.32075 53.0825C6.86254 52.8206 6.89527 52.4606 7.41893 52.297L25.0927 46.4711L42.3738 31.8739Z" fill="#9D83DB"/>
<path d="M58.3132 27.292L99.552 51.0862L83.5801 55.6683L42.374 31.8741L58.3132 27.292Z" fill="#5330A5"/>
<path d="M66.2989 70.2654L48.6251 76.0912C48.1014 76.2548 47.3159 76.1893 46.8577 75.8948L7.32075 53.0825C6.86254 52.8207 6.89527 52.4606 7.41893 52.297L25.0927 46.4712L66.2989 70.2654Z" fill="#5330A5"/>
<path d="M60.9962 28.7971L76.1171 16.0654L111.988 36.783L96.8675 49.5474L60.9962 28.7971Z" fill="#E0E0E0"/>
<path d="M45.0245 33.4117L80.9285 54.1293L96.8677 49.5472L60.9964 28.7969L45.0245 33.4117Z" fill="#E0E0E0"/>
<g opacity="0.5">
<path opacity="0.5" d="M45.0245 33.4117L80.9285 54.1293L96.8677 49.5472L60.9964 28.7969L45.0245 33.4117Z" fill="#E0E0E0"/>
</g>
<path d="M27.743 48.0091L63.647 68.7267L80.9281 54.1295L45.0241 33.4119L27.743 48.0091Z" fill="#E0E0E0"/>
<path d="M12.5242 53.0168L48.4282 73.7345L63.6473 68.7269L27.7433 48.0093L12.5242 53.0168Z" fill="#E0E0E0"/>
<g opacity="0.5">
<path opacity="0.5" d="M12.5242 53.0168L48.4282 73.7345L63.6473 68.7269L27.7433 48.0093L12.5242 53.0168Z" fill="#E0E0E0"/>
</g>
<path d="M103.25 44.1471L98.2095 41.1032L106.195 33.4119L111.989 36.783L103.25 44.1471Z" fill="#F0F0F0"/>
<path d="M96.8684 40.3177L104.854 32.6591L92.9081 25.7205L84.9222 33.4118L96.8684 40.3177Z" fill="#F0F0F0"/>
<path d="M91.5659 24.9678L83.58 32.6592L79.587 30.3354L80.9289 18.8474L91.5659 24.9678Z" fill="#F0F0F0"/>
<path d="M78.2782 29.5826L79.5874 18.0619L76.1181 16.0654L63.1573 26.997L78.2782 29.5826Z" fill="#F0F0F0"/>
<path d="M92.2206 46.8635L96.2136 43.0015L101.188 45.8816L96.8681 49.5473L92.2206 46.8635Z" fill="#F0F0F0"/>
<path d="M94.8719 42.2486L90.9116 46.078L78.9327 39.1721L82.9257 35.3428L94.8719 42.2486Z" fill="#F0F0F0"/>
<path d="M77.5906 38.4195L81.5836 34.5574L77.9506 32.4628L70.292 31.1208V34.1974L77.5906 38.4195Z" fill="#F0F0F0"/>
<path d="M68.95 33.412V30.8919L62.6333 29.7791L68.95 33.412Z" fill="#F0F0F0"/>
<path d="M62.3055 35.7031C63.7783 35.2776 65.8729 35.4413 66.953 36.0958C68.0331 36.7504 67.7712 37.6014 66.2984 38.0269C64.8256 38.4523 62.7309 38.2887 61.6509 37.6341C60.5381 37.0123 60.8326 36.1286 62.3055 35.7031Z" fill="#E6E6E6"/>
<path d="M66.6266 34.8851C66.9212 34.9833 67.2157 35.1142 67.4448 35.2451C68.5903 35.8997 68.6231 36.7834 68.5903 37.1434C68.5576 37.307 68.5249 37.5034 68.394 37.7325L71.6014 39.5653L77.5909 38.4198L70.2923 34.1978L66.6266 34.8851Z" fill="#E6E6E6"/>
<path d="M68.9499 33.4124L64.8588 34.1325L62.7641 34.427L55.6619 30.3359L60.9967 28.7976L68.9499 33.4124Z" fill="#E6E6E6"/>
<path d="M45.025 33.412L55.0074 39.1724L60.9641 38.3541C60.015 37.6996 59.9822 36.9141 60.015 36.5868C60.0477 36.4231 60.0804 36.2267 60.2113 35.9976L52.1272 31.3828L45.025 33.412Z" fill="#E6E6E6"/>
<path d="M56.2184 39.86L60.9969 42.6093L68.9829 41.071L65.6445 39.1727H65.6117C65.2517 39.2055 64.859 39.2382 64.4989 39.2382C63.6807 39.2382 62.8952 39.14 62.2079 38.9109L56.2184 39.86Z" fill="#E6E6E6"/>
<path d="M78.9324 39.1726L90.9113 46.0785L84.9218 47.224L72.9429 40.3181L78.9324 39.1726Z" fill="#E6E6E6"/>
<path d="M60.9971 42.6415L68.983 41.1033L80.9292 48.0091L72.9432 49.5474L60.9971 42.6415Z" fill="#E6E6E6"/>
<path d="M92.2216 46.864L96.8691 49.5478L91.567 51.0861L86.2321 48.0095L92.2216 46.864Z" fill="#E6E6E6"/>
<path d="M74.2858 50.301L82.2718 48.7627L88.0321 52.1011L80.9299 54.1303L74.2858 50.301Z" fill="#E6E6E6"/>
<path d="M53.0103 42.6415L48.5591 50.8238L37.0384 44.147L47.6754 39.5649L53.0103 42.6415Z" fill="#F0F0F0"/>
<path d="M74.2848 50.3005L72.9429 52.5916L73.3683 60.5121L80.9288 54.1299L74.2848 50.3005Z" fill="#F0F0F0"/>
<path d="M72.9422 49.5477L71.6331 51.8388L54.9412 42.2164L56.2176 39.8599L72.9422 49.5477Z" fill="#F0F0F0"/>
<path d="M55.0072 39.1725L53.6653 41.4635L42.8646 35.2449L45.0248 33.4121L55.0072 39.1725Z" fill="#F0F0F0"/>
<path d="M54.3521 43.3943L70.9458 52.984L71.3713 62.1809L70.1276 63.2609L49.8682 51.5766L54.3521 43.3943Z" fill="#F0F0F0"/>
<path d="M46.3664 38.7797L41.7843 36.1614L34.2239 42.5436L35.7294 43.3945L46.3664 38.7797Z" fill="#F0F0F0"/>
<path d="M67.967 65.094L62.3048 61.821L59.6537 66.4359L63.6467 68.7269L67.967 65.094Z" fill="#F0F0F0"/>
<path d="M55.6627 57.9799L53.0116 62.5715L58.3402 65.6481L60.9913 61.0564L55.6627 57.9799Z" fill="#F0F0F0"/>
<path d="M54.3521 57.2063L48.6245 53.9006L46.0716 58.5809L51.6683 61.8211L54.3521 57.2063Z" fill="#F0F0F0"/>
<path d="M44.7626 57.8284L47.2828 53.1481L35.7293 46.4713L29.9035 46.1768L27.7434 48.0096L44.7626 57.8284Z" fill="#F0F0F0"/>
<path d="M33.1436 43.4272L35.7292 44.9328L31.5726 44.7691L33.1436 43.4272Z" fill="#F0F0F0"/>
<path d="M38.3147 60.3156C39.7876 59.8902 41.8822 60.0538 42.9623 60.7084C44.0751 61.3302 43.7805 62.2139 42.3077 62.6394C40.8349 63.0649 38.7402 62.9012 37.6602 62.2467C36.5474 61.6248 36.8419 60.7411 38.3147 60.3156Z" fill="#E6E6E6"/>
<path d="M59.6547 66.4363L54.3525 67.9418L58.5746 70.3965L63.6476 68.7273L59.6547 66.4363Z" fill="#E6E6E6"/>
<path d="M58.3124 65.6505L53.0103 67.1888L47.6754 64.1122L53.0103 62.574L58.3124 65.6505Z" fill="#E6E6E6"/>
<path d="M51.6683 61.8212L46.3662 63.3595L44.5988 62.3449C44.5988 62.3449 45.4498 60.4793 42.9623 59.6938L46.0716 58.6138L51.6683 61.8212Z" fill="#E6E6E6"/>
<path d="M44.7623 57.8281L41.4893 59.0063C41.4893 59.0063 40.442 58.8427 38.8383 59.0063L29.085 53.3769L34.3871 51.8386L44.7623 57.8281Z" fill="#E6E6E6"/>
<path d="M33.0784 51.0861L27.7436 52.5916L22.6705 49.6787L27.7436 48.0095L33.0784 51.0861Z" fill="#E6E6E6"/>
<path d="M19.2991 50.7915L27.7433 55.6682L21.0992 57.9919L12.5242 53.0171L19.2991 50.7915Z" fill="#E6E6E6"/>
<path d="M29.085 56.4536L36.089 60.4793C36.089 60.4793 35.2381 61.8212 36.3181 62.8685L31.736 64.1123L22.4409 58.7447L28.9213 56.5191" fill="#E6E6E6"/>
<path d="M33.0782 64.898L37.7913 63.7197C37.7913 63.7197 40.0823 64.6034 41.9806 63.9161L49.0174 67.9745L50.3593 73.113L48.4283 73.7349L33.0782 64.898Z" fill="#E6E6E6"/>
<path d="M50.3593 68.7275L51.472 72.7532L55.1705 71.5095L50.3593 68.7275Z" fill="#E6E6E6"/>
<path fill-rule="evenodd" clip-rule="evenodd" d="M53.4824 41.2083L71.448 51.6882L72.6913 49.2018L90.9058 45.6601L95.2011 41.842L96.5298 43.3368L91.8252 47.5188L74.0397 50.977L72.2829 54.4906L54.2486 43.9706L46.0453 58.9295L40.6528 60.5472L40.0781 58.6316L44.6857 57.2493L53.4824 41.2083Z" fill="#FFCCAC"/>
<path d="M38.2663 48.3635L38.4334 48.28C38.3498 48.656 38.2663 49.0737 38.2663 49.5333V50.1181C38.2663 52.2069 40.7728 57.5543 41.6919 59.4342C41.7755 59.6431 40.9399 60.6039 40.9399 60.6039L42.3603 59.8102C42.3603 59.8102 45.786 57.0112 45.786 54.4629V53.878C45.786 51.3296 44.1149 48.28 42.0261 47.0685C40.9817 46.4836 40.0209 46.4418 39.3525 46.9014L37.9321 47.7369L38.2663 48.3635ZM40.1462 50.327C40.1462 49.1155 40.9817 48.656 42.0261 49.2408C41.9426 49.9928 43.363 52.4158 43.9061 52.4994C43.9061 53.7109 43.0705 54.1704 42.0261 53.5856C40.9817 53.0007 40.1462 51.5385 40.1462 50.327Z" fill="#37206D"/>
<path d="M38.2663 48.3635L38.4334 48.28C38.3498 48.656 38.2663 49.0737 38.2663 49.5333V50.1181C38.2663 52.2069 40.7728 57.5543 41.6919 59.4342C41.7755 59.6431 40.9399 60.6039 40.9399 60.6039L42.3603 59.8102C42.3603 59.8102 45.786 57.0112 45.786 54.4629V53.878C45.786 51.3296 44.1149 48.28 42.0261 47.0685C40.9817 46.4836 40.0209 46.4418 39.3525 46.9014L37.9321 47.7369L38.2663 48.3635ZM40.1462 50.327C40.1462 49.1155 40.9817 48.656 42.0261 49.2408C41.9426 49.9928 43.363 52.4158 43.9061 52.4994C43.9061 53.7109 43.0705 54.1704 42.0261 53.5856C40.9817 53.0007 40.1462 51.5385 40.1462 50.327Z" fill="#37206D"/>
<g opacity="0.2">
<path opacity="0.2" d="M38.2663 48.3635L38.4334 48.28C38.3498 48.656 38.2663 49.0737 38.2663 49.5333V50.1181C38.2663 52.2069 40.7728 57.5543 41.6919 59.4342C41.7755 59.6431 40.9399 60.6039 40.9399 60.6039L42.3603 59.8102C42.3603 59.8102 45.786 57.0112 45.786 54.4629V53.878C45.786 51.3296 44.1149 48.28 42.0261 47.0685C40.9817 46.4836 40.0209 46.4418 39.3525 46.9014L37.9321 47.7369L38.2663 48.3635ZM40.1462 50.327C40.1462 49.1155 40.9817 48.656 42.0261 49.2408C41.9426 49.9928 43.363 52.4158 43.9061 52.4994C43.9061 53.7109 43.0705 54.1704 42.0261 53.5856C40.9817 53.0007 40.1462 51.5385 40.1462 50.327Z" fill="#37206D"/>
</g>
<path d="M36.7622 50.954C36.7622 53.0846 39.3523 58.5573 40.2296 60.3536C40.3967 60.6461 40.7727 60.7296 41.0234 60.5207C42.0678 59.5599 44.2819 57.304 44.2819 55.2987V54.7139C44.2819 52.1655 42.6109 49.1159 40.5221 47.9044C38.4333 46.6928 36.7622 47.8208 36.7622 50.3691V50.954V50.954ZM38.6421 51.2047C38.6421 49.9932 39.4777 49.5336 40.5221 50.1185C41.5665 50.7034 42.402 52.1655 42.402 53.377C42.402 54.5885 41.5665 55.0481 40.5221 54.4632C39.4777 53.8366 38.6421 52.3744 38.6421 51.2047Z" fill="#7550CC"/>
<path d="M93.8693 31.3635L94.0364 31.28C93.9529 31.656 93.8693 32.0737 93.8693 32.5333V33.1181C93.8693 35.2069 96.3759 40.5543 97.2949 42.4342C97.3785 42.6431 96.543 43.6039 96.543 43.6039L97.9634 42.8102C97.9634 42.8102 101.389 40.0112 101.389 37.4629V36.878C101.389 34.3296 99.718 31.28 97.6292 30.0685C96.5848 29.4836 95.6239 29.4418 94.9555 29.9014L93.5351 30.7369L93.8693 31.3635ZM95.7492 33.327C95.7492 32.1155 96.5848 31.656 97.6292 32.2408C97.5456 32.9928 98.966 35.4158 99.5091 35.4994C99.5091 36.7109 98.6736 37.1704 97.6292 36.5856C96.5848 36.0007 95.7492 34.5385 95.7492 33.327Z" fill="#37206D"/>
<path d="M93.8693 31.3635L94.0364 31.28C93.9529 31.656 93.8693 32.0737 93.8693 32.5333V33.1181C93.8693 35.2069 96.3759 40.5543 97.2949 42.4342C97.3785 42.6431 96.543 43.6039 96.543 43.6039L97.9634 42.8102C97.9634 42.8102 101.389 40.0112 101.389 37.4629V36.878C101.389 34.3296 99.718 31.28 97.6292 30.0685C96.5848 29.4836 95.6239 29.4418 94.9555 29.9014L93.5351 30.7369L93.8693 31.3635ZM95.7492 33.327C95.7492 32.1155 96.5848 31.656 97.6292 32.2408C97.5456 32.9928 98.966 35.4158 99.5091 35.4994C99.5091 36.7109 98.6736 37.1704 97.6292 36.5856C96.5848 36.0007 95.7492 34.5385 95.7492 33.327Z" fill="#37206D"/>
<g opacity="0.2">
<path opacity="0.2" d="M93.8693 31.3635L94.0364 31.28C93.9529 31.656 93.8693 32.0737 93.8693 32.5333V33.1181C93.8693 35.2069 96.3759 40.5543 97.2949 42.4342C97.3785 42.6431 96.543 43.6039 96.543 43.6039L97.9634 42.8102C97.9634 42.8102 101.389 40.0112 101.389 37.4629V36.878C101.389 34.3296 99.718 31.28 97.6292 30.0685C96.5848 29.4836 95.6239 29.4418 94.9555 29.9014L93.5351 30.7369L93.8693 31.3635ZM95.7492 33.327C95.7492 32.1155 96.5848 31.656 97.6292 32.2408C97.5456 32.9928 98.966 35.4158 99.5091 35.4994C99.5091 36.7109 98.6736 37.1704 97.6292 36.5856C96.5848 36.0007 95.7492 34.5385 95.7492 33.327Z" fill="#37206D"/>
</g>
<path d="M92.3652 33.954C92.3652 36.0846 94.9554 41.5573 95.8327 43.3536C95.9998 43.6461 96.3757 43.7296 96.6264 43.5207C97.6708 42.5599 99.8849 40.304 99.8849 38.2987V37.7139C99.8849 35.1655 98.2139 32.1159 96.1251 30.9044C94.0363 29.6928 92.3652 30.8208 92.3652 33.3691V33.954V33.954ZM94.2452 34.2047C94.2452 32.9932 95.0807 32.5336 96.1251 33.1185C97.1695 33.7034 98.005 35.1655 98.005 36.377C98.005 37.5885 97.1695 38.0481 96.1251 37.4632C95.0807 36.8366 94.2452 35.3744 94.2452 34.2047Z" fill="#7550CC"/>
</g>
<defs>
<clipPath id="clip0_36_6346">
<rect width="116" height="80" fill="white"/>
</clipPath>
</defs>
</svg>
