<svg width="372" height="112" viewBox="0 0 372 112" fill="none" xmlns="http://www.w3.org/2000/svg">
<g filter="url(#filter0_dd_205_19307)">
<g clip-path="url(#clip0_205_19307)">
<path d="M6 2L366 2V102L6 102L6 2Z" fill="url(#paint0_linear_205_19307)"/>
<g clip-path="url(#clip1_205_19307)">
<path d="M331 116C331 92.2518 350.252 73 374 73V73V116H331V116Z" fill="#FFF0B7"/>
<rect x="331" y="98" width="43" height="4" fill="#7550CC"/>
<rect x="331" y="93" width="43" height="4" fill="#7550CC"/>
<rect x="331" y="88" width="43" height="4" fill="#7550CC"/>
<rect x="331" y="83" width="43" height="4" fill="#7550CC"/>
<rect x="331" y="78" width="43" height="4" fill="#7550CC"/>
<rect x="331" y="73" width="43" height="4" fill="#7550CC"/>
</g>
<path d="M174.584 66.648H178.16V66.108H174.584V63.996H177.752V63.456H170.936V63.996H173.996V66.108H170.456V66.648H173.996V68.976H169.244V69.516H179.432V68.976H174.584V66.648ZM171.224 59.304V59.856H173.648C172.436 61.308 170.468 62.892 168.896 63.708C169.04 63.84 169.196 64.02 169.28 64.176C170.972 63.216 173.084 61.428 174.308 59.868C175.58 61.56 177.584 63.192 179.36 64.044C179.468 63.9 179.648 63.684 179.78 63.564C177.944 62.736 175.784 61.044 174.62 59.304H171.224ZM189.8 65.532V68.628H183.548V65.532H189.8ZM182.972 69.876H183.548V69.192H189.8V69.84H190.388V64.968H182.972V69.876ZM187.988 60.816C188.648 61.38 189.344 62.076 189.944 62.76L183.056 63.12C184.196 62.088 185.36 60.744 186.428 59.316L185.864 59.052C184.856 60.564 183.392 62.136 182.96 62.532C182.552 62.928 182.216 63.216 181.988 63.264C182.06 63.42 182.144 63.708 182.168 63.84C182.564 63.696 183.164 63.66 190.352 63.24C190.688 63.636 190.964 64.032 191.168 64.356L191.66 63.996C191.048 63 189.656 61.536 188.444 60.516L187.988 60.816ZM197 59.412C196.232 61.284 194.996 63.06 193.604 64.2C193.76 64.296 194 64.524 194.108 64.632C195.476 63.42 196.76 61.572 197.6 59.592L197 59.412ZM200.48 65.676C201.02 66.408 201.644 67.272 202.172 68.1L195.932 68.436C197.24 66.936 198.5 64.896 199.628 62.904L199.028 62.628C197.972 64.716 196.412 66.924 195.932 67.488C195.476 68.076 195.104 68.52 194.84 68.568C194.924 68.748 195.032 69.048 195.056 69.192C195.44 69.048 196.004 69.024 202.52 68.628C202.772 69.036 203 69.42 203.168 69.744L203.72 69.444C203.156 68.412 201.98 66.72 200.996 65.46L200.48 65.676ZM198.428 59.316V59.892H200.852C201.512 61.872 202.736 63.684 204.068 64.668C204.188 64.5 204.392 64.296 204.536 64.176C203.156 63.24 201.896 61.356 201.284 59.316H198.428ZM207.956 65.82V64.284H211.1V65.82H207.956ZM207.956 62.268H211.1V63.792H207.956V62.268ZM214.904 62.268V63.792H211.676V62.268H214.904ZM214.904 65.82H211.676V64.284H214.904V65.82ZM216.74 67.5H211.676V66.324H215.468V61.764H211.676V60.708H216.308V60.156H211.676V59.016H211.1V60.156H206.516V60.708H211.1V61.764H207.392V66.324H211.1V67.5H206.096V68.04H211.1V69.924H211.676V68.04H216.74V67.5ZM219.224 65.52V64.44H221.06V65.52H219.224ZM219.224 62.94H221.06V63.984H219.224V62.94ZM223.532 62.94V63.984H221.612V62.94H223.532ZM223.532 65.52H221.612V64.44H223.532V65.52ZM228.932 61.86H226.316C226.34 60.972 226.352 60.06 226.352 59.124H225.8C225.8 60.06 225.8 60.972 225.764 61.86H224.156V62.4H225.752C225.632 64.764 225.284 66.864 224.132 68.376V68.244C223.292 68.34 222.428 68.448 221.612 68.532V67.356H224.06V66.864H221.612V65.976H224.048V62.472H221.612V61.548H224.3V61.056H221.612V60C222.536 59.892 223.4 59.772 224.048 59.616L223.712 59.172C222.512 59.448 220.28 59.652 218.516 59.76C218.576 59.88 218.648 60.084 218.672 60.216C219.416 60.18 220.256 60.132 221.06 60.048V61.056H218.336V61.548H221.06V62.472H218.708V65.976H221.06V66.864H218.684V67.356H221.06V68.592C220.04 68.712 219.092 68.808 218.36 68.88L218.456 69.42C219.872 69.252 221.876 69.012 223.808 68.772C223.556 69.048 223.256 69.3 222.932 69.528C223.088 69.612 223.304 69.792 223.4 69.912C225.608 68.328 226.148 65.592 226.292 62.4H228.356C228.212 67.08 228.068 68.736 227.756 69.12C227.648 69.252 227.54 69.276 227.324 69.276C227.096 69.276 226.52 69.276 225.896 69.228C225.98 69.384 226.052 69.624 226.064 69.78C226.616 69.816 227.192 69.828 227.504 69.804C227.852 69.78 228.068 69.708 228.248 69.444C228.644 68.952 228.776 67.32 228.932 62.196V61.86ZM240.176 62.304C240.524 62.304 240.884 62.304 241.04 62.256C241.028 62.124 240.992 61.92 240.98 61.764C240.788 61.8 240.38 61.812 240.152 61.812H238.004C237.704 61.812 237.632 61.716 237.632 61.356V60.576H240.608V60.072H237.632V59.088L237.08 59.1V61.356C237.08 62.064 237.272 62.304 237.992 62.304H240.176ZM240.284 66.444C240.992 66.444 241.172 66.192 241.244 65.184C241.076 65.16 240.872 65.076 240.74 64.98C240.704 65.82 240.62 65.94 240.224 65.94H238.244C237.716 65.94 237.62 65.88 237.62 65.604V64.56H240.584V64.056H237.62V62.988H237.08V65.604C237.08 66.3 237.32 66.444 238.232 66.444H240.284ZM235.496 66.852C235.964 67.332 236.528 67.992 236.816 68.4L237.224 68.064C236.924 67.704 236.348 67.068 235.88 66.612L235.496 66.852ZM236.36 61.56C236.024 61.044 235.292 60.228 234.68 59.652L234.26 59.904C234.536 60.168 234.836 60.48 235.112 60.792L231.968 60.996C232.58 60.504 233.204 59.856 233.78 59.16L233.228 58.944C232.652 59.748 231.788 60.552 231.548 60.744C231.308 60.948 231.104 61.08 230.924 61.104C230.996 61.236 231.068 61.524 231.104 61.656C231.332 61.56 231.74 61.512 235.472 61.212C235.652 61.44 235.808 61.656 235.916 61.824L236.36 61.56ZM231.428 69.492C231.836 68.916 232.172 68.004 232.388 67.308L231.908 67.116C231.716 67.776 231.344 68.688 230.936 69.252L231.428 69.492ZM234.992 65.988C234.992 66.108 234.956 66.144 234.812 66.156C234.656 66.168 234.2 66.168 233.612 66.156C233.684 66.3 233.78 66.468 233.804 66.612C234.524 66.612 234.956 66.612 235.208 66.528C235.448 66.432 235.52 66.3 235.52 65.988V62.1H231.62V64.068C231.62 64.812 231.56 65.76 231.008 66.492C231.14 66.54 231.332 66.732 231.416 66.852C232.04 66.048 232.136 64.92 232.136 64.068V62.592H234.992V64.368C233.936 64.644 232.916 64.896 232.196 65.052L232.412 65.508C233.18 65.292 234.08 65.04 234.992 64.776V65.988ZM232.436 63.384C233.144 63.624 234.068 63.996 234.56 64.224L234.8 63.864C234.296 63.624 233.372 63.288 232.676 63.06L232.436 63.384ZM234.992 69.192C234.248 69.192 234.116 69.132 234.116 68.844V67.212H233.552V68.844C233.552 69.552 233.852 69.696 235.004 69.696H237.812C238.736 69.696 238.94 69.408 239.024 68.136C238.856 68.1 238.64 68.028 238.496 67.932C238.448 69.036 238.352 69.192 237.752 69.192H234.992ZM239.552 67.2C239.936 67.896 240.368 68.856 240.56 69.42L241.088 69.228C240.908 68.676 240.464 67.752 240.056 67.068L239.552 67.2ZM246.164 60.36V63.36H244.052V60.36H246.164ZM244.052 66.96V63.888H246.164V66.96H244.052ZM246.716 59.832H243.5V68.424H244.052V67.5H246.716V59.832ZM247.88 66.348C248.504 66.996 249.188 67.908 249.476 68.496L249.98 68.184C249.692 67.596 248.984 66.696 248.348 66.06L247.88 66.348ZM253.868 61.08V60.552H250.688V59.004H250.124V60.552H246.932V61.08H250.124V62.88H247.556V63.408H251.732V64.956H247.004V65.484H251.732V69.084C251.732 69.264 251.672 69.324 251.468 69.336C251.276 69.336 250.592 69.336 249.764 69.312C249.848 69.492 249.944 69.708 249.968 69.864C250.976 69.864 251.552 69.864 251.876 69.768C252.176 69.672 252.296 69.492 252.296 69.084V65.484H253.832V64.956H252.296V63.408H253.448V62.88H250.688V61.08H253.868ZM260.528 62.172C260.312 62.58 260.06 62.976 259.784 63.348L256.988 63.468C257.624 62.808 258.26 61.956 258.824 61.092H262.004V60.552H259.22L259.412 60.48C259.292 60.072 258.956 59.436 258.62 58.968L258.092 59.136C258.392 59.568 258.68 60.132 258.824 60.552H255.584V61.092H258.152C257.6 61.98 256.904 62.832 256.676 63.06C256.424 63.336 256.22 63.528 256.028 63.552C256.088 63.708 256.184 64.008 256.208 64.128C256.4 64.044 256.748 64.008 259.352 63.864C258.368 65.016 257.108 65.964 255.752 66.612C255.884 66.732 256.076 66.972 256.16 67.092C258.116 66.024 259.94 64.404 261.044 62.352L260.528 62.172ZM261.308 64.464C260.108 66.6 258.02 68.328 255.716 69.36C255.836 69.48 256.04 69.72 256.124 69.84C257.42 69.192 258.656 68.352 259.736 67.32C260.42 67.944 261.212 68.76 261.62 69.252L262.076 68.868C261.632 68.376 260.816 67.548 260.12 66.936C260.78 66.252 261.368 65.496 261.836 64.68L261.308 64.464ZM263.624 60.444H263.06V67.068H263.624V60.444ZM265.244 59.172V69.012C265.244 69.228 265.16 69.288 264.944 69.3C264.764 69.312 264.092 69.324 263.312 69.3C263.408 69.456 263.492 69.684 263.528 69.84C264.524 69.852 265.064 69.84 265.376 69.744C265.664 69.636 265.808 69.468 265.808 69V59.172H265.244ZM268.184 69.456H278.288V68.928H268.184V69.456ZM275.732 65.736H270.704V64.464H275.732V65.736ZM275.732 67.5H270.704V66.204H275.732V67.5ZM278.48 60.648H273.464V59.016H272.9V60.648H267.944V61.176H272.264C271.172 62.448 269.396 63.624 267.848 64.188C267.968 64.296 268.136 64.5 268.22 64.644C269.84 63.984 271.784 62.652 272.9 61.2V63.996H270.14V67.968H276.308V63.996H273.464V61.236C275.048 62.244 276.956 63.66 277.916 64.548L278.324 64.14C277.4 63.324 275.756 62.124 274.292 61.176H278.48V60.648ZM282.848 60.456C282.668 60.048 282.26 59.424 281.9 58.956L281.48 59.208C281.816 59.676 282.224 60.336 282.404 60.768L282.848 60.456ZM284.42 61.068H280.208V61.584H284.42V61.068ZM283.94 63.096V62.604H280.676V63.096H283.94ZM283.448 66.228V68.604H281.156V66.228H283.448ZM283.94 65.712H280.664V69.72H281.156V69.12H283.94V65.712ZM280.676 64.656H283.952V64.152H280.676V64.656ZM288.008 63.264V64.848H285.764V63.264H288.008ZM285.764 66.96V65.352H288.008V66.96H285.764ZM288.512 67.464V62.76H285.26V68.196H285.764V67.464H288.512ZM290.792 60.852H286.184C286.424 60.3 286.628 59.712 286.808 59.1L286.244 58.968C285.824 60.54 285.104 62.004 284.18 62.988C284.336 63.072 284.564 63.24 284.684 63.336C285.14 62.808 285.56 62.136 285.932 61.392H290.228C290.048 66.768 289.856 68.7 289.46 69.132C289.364 69.288 289.232 69.312 289.004 69.312C288.752 69.312 288.092 69.3 287.348 69.252C287.456 69.408 287.528 69.648 287.54 69.816C288.164 69.864 288.8 69.876 289.172 69.852C289.532 69.84 289.76 69.744 289.976 69.468C290.444 68.904 290.6 67.008 290.792 61.2V60.852ZM295.928 66.324V62.244C296.24 61.8 296.504 61.332 296.744 60.852L296.228 60.72C295.664 61.884 294.776 63.048 293.864 63.828C293.996 63.912 294.2 64.104 294.296 64.188C294.668 63.852 295.052 63.444 295.4 62.988V66.324H295.928ZM294.452 69.54C295.184 68.988 295.652 68.064 295.952 67.26L295.484 67.08C295.196 67.848 294.704 68.748 294.008 69.264L294.452 69.54ZM300.092 63.048H297.98V62.268H300.092V63.048ZM300.092 64.248H297.98V63.468H300.092V64.248ZM300.092 65.496H297.98V64.668H300.092V65.496ZM297.464 66.312H297.98V65.952H303.08V65.496H300.608V64.668H302.564V64.248H300.608V63.468H302.516V63.048H300.608V62.268H302.84V61.812H300.488L300.728 61.668C300.56 61.368 300.224 60.924 299.888 60.612L299.492 60.84C299.78 61.116 300.056 61.5 300.236 61.812H298.136C298.304 61.488 298.484 61.176 298.628 60.84L298.112 60.708C297.656 61.776 296.9 62.856 296.108 63.588C296.252 63.66 296.456 63.828 296.552 63.924C296.864 63.624 297.164 63.252 297.464 62.844V66.312ZM300.296 67.524C299.84 67.128 298.952 66.636 298.244 66.3L297.884 66.66C298.616 66.996 299.48 67.536 299.924 67.92L300.296 67.524ZM298.052 69.264C297.488 69.264 297.392 69.216 297.392 68.964V67.068H296.852V68.964C296.852 69.624 297.104 69.768 298.04 69.768H300.212C300.98 69.768 301.172 69.516 301.232 68.352C301.076 68.316 300.86 68.244 300.728 68.136C300.692 69.144 300.608 69.264 300.164 69.264H298.052ZM300.944 67.188C301.652 67.884 302.432 68.868 302.744 69.516L303.236 69.24C302.888 68.592 302.12 67.644 301.388 66.96L300.944 67.188ZM298.88 60C298.7 59.628 298.364 59.124 298.052 58.764L297.596 58.968C297.824 59.268 298.088 59.664 298.268 60H293.312V63.648C293.312 65.4 293.228 67.812 292.364 69.54C292.496 69.6 292.724 69.78 292.82 69.888C293.732 68.064 293.852 65.472 293.852 63.648V60.516H303.296V60H298.88ZM310.592 65.556V63.24H314.228V65.556H310.592ZM306.74 65.556C306.776 65.1 306.788 64.644 306.788 64.224V63.24H310.016V65.556H306.74ZM310.016 60.432V62.688H306.788V60.432H310.016ZM314.228 62.688H310.592V60.432H314.228V62.688ZM314.804 59.88H306.212V64.224C306.212 65.916 306.08 68.04 304.748 69.54C304.88 69.612 305.108 69.816 305.192 69.948C306.128 68.88 306.524 67.464 306.692 66.108H310.016V69.78H310.592V66.108H314.228V68.94C314.228 69.18 314.144 69.252 313.916 69.252C313.676 69.264 312.848 69.276 311.912 69.252C311.996 69.408 312.104 69.66 312.116 69.816C313.292 69.828 313.952 69.828 314.312 69.72C314.66 69.612 314.804 69.42 314.804 68.94V59.88ZM318.572 65.232C318.596 64.704 318.608 64.188 318.608 63.732V62.868H320.816V65.232H318.572ZM320.816 60.012V62.316H318.608V60.012H320.816ZM321.368 59.472H318.068V63.732C318.068 65.508 317.996 67.884 317.144 69.612C317.276 69.648 317.516 69.792 317.624 69.9C318.2 68.736 318.44 67.212 318.536 65.784H320.816V69.084C320.816 69.276 320.756 69.324 320.576 69.336C320.42 69.348 319.892 69.348 319.256 69.336C319.34 69.492 319.412 69.732 319.436 69.876C320.276 69.888 320.732 69.876 320.996 69.78C321.26 69.672 321.368 69.492 321.368 69.096V59.472ZM327.164 64.068C326.84 65.292 326.324 66.36 325.688 67.248C325.028 66.324 324.512 65.232 324.152 64.068H327.164ZM327.464 63.504L327.356 63.528H323.204V60.048H326.912V61.824C326.912 61.968 326.864 62.016 326.672 62.016C326.504 62.028 325.916 62.028 325.1 62.016C325.184 62.172 325.28 62.352 325.316 62.532C326.216 62.532 326.78 62.532 327.092 62.436C327.392 62.34 327.464 62.172 327.464 61.824V59.508H322.64V69.876H323.204V64.068H323.636C324.044 65.4 324.62 66.636 325.364 67.668C324.752 68.4 324.056 68.976 323.348 69.348C323.468 69.456 323.624 69.636 323.696 69.768C324.404 69.36 325.076 68.808 325.688 68.1C326.3 68.856 326.996 69.48 327.764 69.9C327.86 69.756 328.028 69.564 328.16 69.456C327.356 69.048 326.636 68.448 326.012 67.68C326.816 66.624 327.452 65.268 327.8 63.636L327.464 63.504ZM330.236 61.332C331.268 61.812 332.456 62.616 333.032 63.204L333.416 62.76C333.152 62.496 332.768 62.196 332.324 61.908C333.068 61.38 333.872 60.6 334.388 59.856L333.992 59.604L333.896 59.64H329.732V60.156H333.464C333.044 60.672 332.444 61.236 331.88 61.632C331.46 61.38 331.004 61.14 330.584 60.96L330.236 61.332ZM337.112 65.712C337.184 65.316 337.244 64.896 337.292 64.464H336.704C336.656 64.896 336.596 65.304 336.512 65.712H334.256V66.252H336.38C335.984 67.632 335.192 68.784 333.428 69.42C333.536 69.528 333.716 69.744 333.776 69.876C335.72 69.132 336.572 67.836 336.992 66.252H339.38C339.176 68.196 338.96 68.976 338.708 69.228C338.6 69.324 338.492 69.336 338.288 69.336C338.096 69.336 337.568 69.324 337.004 69.276C337.088 69.432 337.148 69.672 337.16 69.828C337.7 69.876 338.228 69.864 338.492 69.864C338.804 69.84 338.984 69.78 339.176 69.612C339.524 69.264 339.752 68.364 339.992 66.024C339.992 65.916 340.016 65.712 340.016 65.712H337.112ZM335.72 60.816H338.66C338.336 61.56 337.856 62.172 337.256 62.688C336.608 62.148 336.08 61.524 335.72 60.828V60.816ZM340.34 60.816V60.3H336.068C336.308 59.928 336.512 59.544 336.68 59.148L336.116 58.992C335.624 60.18 334.772 61.26 333.824 61.98C333.98 62.064 334.208 62.232 334.304 62.34C334.676 62.04 335.036 61.668 335.384 61.26C335.756 61.908 336.248 62.496 336.836 63.012C336.104 63.528 335.228 63.924 334.256 64.2C334.352 63.9 334.46 63.612 334.544 63.324L334.16 63.192L334.076 63.216H329.624V63.756H331.592C331.136 65.148 330.332 66.624 329.552 67.416C329.66 67.524 329.828 67.764 329.9 67.92C330.596 67.164 331.316 65.82 331.808 64.5V69.144C331.808 69.264 331.76 69.3 331.628 69.312C331.484 69.312 331.016 69.312 330.452 69.3C330.536 69.456 330.62 69.696 330.644 69.828C331.364 69.828 331.784 69.828 332.036 69.744C332.3 69.636 332.36 69.48 332.36 69.132V63.756H333.848C333.632 64.5 333.32 65.316 333.02 65.844L333.452 66.072C333.728 65.616 333.992 64.956 334.232 64.284C334.352 64.416 334.496 64.608 334.544 64.716C335.552 64.38 336.488 63.936 337.268 63.36C338.12 63.996 339.104 64.488 340.172 64.776C340.256 64.62 340.424 64.416 340.556 64.284C339.5 64.044 338.528 63.6 337.7 63.012C338.372 62.424 338.924 61.704 339.284 60.816H340.34Z" fill="white"/>
<path d="M66 90C89.7482 90 109 70.7483 109 47L23 47C23 70.7482 42.2517 90 66 90Z" fill="#FFF0B7"/>
<path d="M66 4C42.2518 3.99999 23 23.2517 23 47L109 47C109 23.2518 89.7482 4 66 4Z" fill="#FFCCAC"/>
<g clip-path="url(#clip2_205_19307)">
<rect x="109" y="50" width="43" height="4" transform="rotate(-180 109 50)" fill="#7550CC"/>
<rect x="109" y="55" width="43" height="4" transform="rotate(-180 109 55)" fill="#7550CC"/>
<rect x="109" y="60" width="43" height="4" transform="rotate(-180 109 60)" fill="#7550CC"/>
<rect x="109" y="65" width="43" height="4" transform="rotate(-180 109 65)" fill="#7550CC"/>
<rect x="109" y="70" width="43" height="4" transform="rotate(-180 109 70)" fill="#7550CC"/>
<rect x="109" y="75" width="43" height="4" transform="rotate(-180 109 75)" fill="#7550CC"/>
<rect x="109" y="80" width="43" height="4" transform="rotate(-180 109 80)" fill="#7550CC"/>
<rect x="109" y="85" width="43" height="4" transform="rotate(-180 109 85)" fill="#7550CC"/>
<rect x="109" y="90" width="43" height="4" transform="rotate(-180 109 90)" fill="#7550CC"/>
</g>
<g clip-path="url(#clip3_205_19307)">
<path d="M35 18L74 20.5L90 58L65 78C65 78 60.3052 77.9285 57.5 77C54.511 76.0107 53.1629 74.6798 50.5 73C47.8888 71.3528 46.215 70.6508 44 68.5C41.8987 66.4596 41.1597 64.9133 39.5 62.5C38.0574 60.4023 36.9042 59.3799 36 57C35.0193 54.4186 35 50 35 50V18Z" fill="url(#paint1_linear_205_19307)"/>
<path d="M37.3885 34.0281C40.0899 27.9499 44.9499 23.0899 51.0281 20.3885V20.3885C53.4992 19.2902 56.1205 18.5581 58.8148 18.3274C60.7905 18.1581 63.1354 18 64.9999 18C66.8645 18 69.2094 18.1581 71.185 18.3274C73.8794 18.5581 76.5006 19.2902 78.9718 20.3885V20.3885C85.0499 23.0899 89.91 27.9501 92.6114 34.0283V34.0283C93.7096 36.4992 94.4417 39.1204 94.6726 41.8146C94.8418 43.7903 95 46.1353 95 47.9999C95 49.8646 94.8418 52.2096 94.6726 54.1853C94.4417 56.8794 93.7097 59.5006 92.6115 61.9715V61.9715C89.91 68.0499 85.0499 72.91 78.9716 75.6115V75.6115C76.5006 76.7097 73.8794 77.4417 71.1853 77.6726C69.2096 77.8418 66.8646 78 64.9999 78C63.1353 78 60.7903 77.8418 58.8146 77.6726C56.1204 77.4417 53.4992 76.7096 51.0283 75.6114V75.6114C44.9501 72.91 40.0899 68.0499 37.3885 61.9718V61.9718C36.2902 59.5006 35.5581 56.8794 35.3274 54.185C35.1581 52.2094 35 49.8645 35 47.9999C35 46.1354 35.1581 43.7905 35.3274 41.8148C35.5581 39.1205 36.2902 36.4992 37.3885 34.0281V34.0281Z" fill="url(#paint2_linear_205_19307)"/>
<g clip-path="url(#clip4_205_19307)">
<rect x="64" y="22" width="43" height="4" transform="rotate(-180 64 22)" fill="#7550CC"/>
<rect x="64" y="27" width="43" height="4" transform="rotate(-180 64 27)" fill="#7550CC"/>
<rect x="64" y="32" width="43" height="4" transform="rotate(-180 64 32)" fill="#7550CC"/>
<rect x="64" y="37" width="43" height="4" transform="rotate(-180 64 37)" fill="#7550CC"/>
<rect x="64" y="42" width="43" height="4" transform="rotate(-180 64 42)" fill="#7550CC"/>
<rect x="64" y="47" width="43" height="4" transform="rotate(-180 64 47)" fill="#7550CC"/>
</g>
</g>
<mask id="mask0_205_19307" style="mask-type:alpha" maskUnits="userSpaceOnUse" x="50" y="27" width="33" height="39">
<path d="M72 42C66.4 37.2 67.3333 30 68.5 27H50V66H83L81 50C79.6667 49.3333 77.6 46.8 72 42Z" fill="#C4C4C4"/>
</mask>
<g mask="url(#mask0_205_19307)">
<path d="M74.5556 61.1053H58.4444V63.0526C58.4444 63.5691 58.2747 64.0644 57.9726 64.4296C57.6704 64.7948 57.2606 65 56.8333 65H53.6111C53.1838 65 52.774 64.7948 52.4719 64.4296C52.1697 64.0644 52 63.5691 52 63.0526V45.5263V37.7368V31.8947C52 30.8618 52.3395 29.8711 52.9438 29.1407C53.5481 28.4103 54.3676 28 55.2222 28H77.7778C78.6324 28 79.4519 28.4103 80.0562 29.1407C80.6605 29.8711 81 30.8618 81 31.8947V37.7368V45.5263V63.0526C81 63.5691 80.8303 64.0644 80.5281 64.4296C80.226 64.7948 79.8162 65 79.3889 65H76.1667C75.7394 65 75.3296 64.7948 75.0274 64.4296C74.7253 64.0644 74.5556 63.5691 74.5556 63.0526V61.1053ZM55.2222 31.8947V43.5789H77.7778V31.8947H55.2222ZM77.7778 47.4737H55.2222V57.2105H77.7778V47.4737Z" fill="white"/>
</g>
<path d="M89.9257 37.933C91.895 35.9626 93.0013 33.2908 93.0013 30.505C93.0013 27.7192 91.895 25.0474 89.9257 23.077C88.9508 22.1015 87.7933 21.3277 86.5193 20.7997C85.2453 20.2717 83.8797 20 82.5007 20C81.1216 20 79.756 20.2717 78.482 20.7997C77.208 21.3277 76.0505 22.1015 75.0757 23.077C73.1063 25.0474 72 27.7192 72 30.505C72 33.2908 73.1063 35.9626 75.0757 37.933L77.3572 40.1815L80.4217 43.159L80.6212 43.336C81.7837 44.278 83.4862 44.218 84.5812 43.159L88.2337 39.604L89.9257 37.933V37.933ZM82.5007 35.0005C81.3072 35.0005 80.1626 34.5264 79.3187 33.6825C78.4748 32.8386 78.0007 31.694 78.0007 30.5005C78.0007 29.307 78.4748 28.1624 79.3187 27.3185C80.1626 26.4746 81.3072 26.0005 82.5007 26.0005C83.6941 26.0005 84.8387 26.4746 85.6826 27.3185C86.5265 28.1624 87.0007 29.307 87.0007 30.5005C87.0007 31.694 86.5265 32.8386 85.6826 33.6825C84.8387 34.5264 83.6941 35.0005 82.5007 35.0005Z" fill="white"/>
<circle cx="60" cy="52" r="3" fill="#78CCDE"/>
<circle cx="73" cy="52" r="3" fill="#FFF0B7"/>
<path d="M241.752 40.088C241.512 39.2 240.936 37.664 240.408 36.536L239.328 36.848C239.52 37.304 239.712 37.808 239.904 38.288L237.48 38.624C238.704 37.136 239.976 35.216 240.984 33.248L239.64 32.744C239.4 33.296 239.112 33.872 238.8 34.4L237.048 34.592C237.792 33.488 238.536 32.072 239.112 30.656L237.816 30.248C237.312 31.856 236.304 33.608 236.064 34.016C235.776 34.472 235.512 34.784 235.224 34.808C235.392 35.192 235.608 35.84 235.68 36.152C235.92 36.032 236.328 35.912 238.104 35.672C237.456 36.704 236.904 37.496 236.64 37.808C236.208 38.384 235.848 38.792 235.488 38.864C235.632 39.224 235.848 39.968 235.944 40.256C236.232 40.088 236.832 39.968 240.288 39.416C240.432 39.824 240.528 40.208 240.6 40.496L241.752 40.088ZM233.112 40.496C232.896 39.608 232.416 38.096 231.888 36.944L230.76 37.256C230.952 37.736 231.144 38.24 231.336 38.768L228.984 39.08C230.256 37.592 231.528 35.696 232.584 33.776L231.288 33.272C231.048 33.824 230.76 34.352 230.472 34.88L228.576 35.072C229.44 33.872 230.304 32.288 230.976 30.728L229.632 30.296C229.056 32.12 227.952 33.968 227.616 34.448C227.28 34.928 227.016 35.24 226.728 35.312C226.872 35.672 227.088 36.344 227.136 36.632C227.376 36.512 227.832 36.392 229.704 36.128C229.032 37.16 228.408 38 228.144 38.288C227.688 38.888 227.28 39.272 226.944 39.368C227.112 39.728 227.304 40.424 227.352 40.712C227.688 40.52 228.24 40.424 231.672 39.896C231.768 40.28 231.864 40.616 231.936 40.904L233.112 40.496ZM226.632 41.408C226.296 40.808 225 38.6 224.472 37.76V36.2H226.368V34.52H224.472V29.912H222.912V34.52H220.368V36.2H222.768C222.192 39.344 221.04 43.016 219.84 44.96C220.104 45.392 220.488 46.184 220.68 46.688C221.496 45.248 222.312 42.896 222.912 40.424V51.824H224.472V39.92C224.976 40.928 225.504 42.08 225.744 42.728L226.632 41.408ZM238.896 43.952C238.392 45.032 237.648 46.064 236.76 46.976C236.352 46.064 236.04 44.96 235.728 43.688H241.512V42.248H239.52L240.144 41.6C239.592 41.096 238.488 40.352 237.648 39.872L236.736 40.712C237.432 41.144 238.296 41.744 238.872 42.248H235.44C234.84 38.96 234.504 34.784 234.384 30.104H232.848C232.992 34.688 233.304 38.84 233.88 42.248H226.872V43.688H228.696V44.024C228.696 46.04 228.096 48.728 225.288 50.792C225.624 50.984 226.224 51.536 226.464 51.872C228.576 50.264 229.584 48.176 229.992 46.256C230.928 47.048 231.864 47.936 232.416 48.536L233.52 47.456C232.8 46.712 231.36 45.488 230.208 44.6C230.232 44.408 230.232 44.216 230.232 44.048V43.688H234.144C234.528 45.368 234.984 46.856 235.536 48.08C234.264 49.088 232.728 49.928 231.072 50.576C231.408 50.864 231.84 51.392 232.032 51.704C233.568 51.08 234.984 50.288 236.232 49.376C237.216 50.864 238.464 51.728 240.024 51.824C240.984 51.896 241.728 51.008 242.184 48.392C241.872 48.224 241.272 47.816 240.984 47.48C240.792 49.208 240.48 50.12 239.976 50.072C239.016 49.976 238.176 49.4 237.48 48.344C238.704 47.216 239.688 45.944 240.432 44.504L238.896 43.952ZM255.72 40.16C255.048 39.68 252.288 38 251.352 37.496C251.4 37.352 251.448 37.232 251.472 37.088H255.912V35.624H251.736C251.784 35.312 251.784 35.048 251.784 34.76V33.368H255.312V31.928H248.784C249.024 31.352 249.264 30.776 249.432 30.176L247.824 29.864C247.272 31.664 246.336 33.464 245.112 34.64C245.52 34.832 246.216 35.264 246.552 35.504C247.08 34.928 247.608 34.184 248.064 33.368H250.08V34.76C250.08 35.048 250.08 35.312 250.032 35.624H245.112V37.088H249.72C249.216 38.552 247.944 40.136 244.896 41.336C245.304 41.6 245.808 42.176 246.024 42.56C248.544 41.408 249.984 40.064 250.8 38.696C252 39.512 253.776 40.784 254.472 41.384L255.72 40.16ZM261.432 43.472V45.728H250.344V43.472H261.432ZM250.344 49.496V47.12H261.432V49.496H250.344ZM248.592 51.848H250.344V50.96H261.432V51.8H263.232V42.008H248.592V51.848ZM263.52 38.552H258.576V33.464H263.52V38.552ZM256.896 31.856V40.184H265.272V31.856H256.896ZM276.192 30.632C274.704 34.256 272.208 37.76 269.52 39.992C270 40.328 270.768 41.072 271.104 41.432C273.768 38.984 276.408 35.168 278.136 31.232L276.192 30.632ZM283.176 43.424C284.136 44.696 285.216 46.256 286.152 47.744L275.064 48.368C277.56 45.512 280.032 41.792 282.096 38.072L280.104 37.232C278.112 41.288 275.04 45.584 274.032 46.688C273.144 47.816 272.448 48.608 271.8 48.752C272.064 49.304 272.4 50.264 272.496 50.648C273.432 50.312 274.752 50.24 287.184 49.376C287.688 50.24 288.144 51.008 288.48 51.68L290.256 50.696C289.104 48.56 286.824 45.2 284.88 42.632L283.176 43.424ZM279.576 30.536V32.336H284.04C285.336 35.96 287.64 39.416 290.352 41.432C290.688 40.928 291.312 40.136 291.744 39.776C288.936 37.928 286.536 34.328 285.384 30.536H279.576ZM298.824 43.304V40.832H304.32V43.304H298.824ZM298.824 36.968H304.32V39.416H298.824V36.968ZM311.736 36.968V39.416H306.12V36.968H311.736ZM311.736 43.304H306.12V40.832H311.736V43.304ZM316.032 46.736H306.12V44.768H313.512V35.48H306.12V33.728H315.216V32.096H306.12V29.936H304.32V32.096H295.344V33.728H304.32V35.48H297.12V44.768H304.32V46.736H294.624V48.344H304.32V51.896H306.12V48.344H316.032V46.736ZM340.752 34.64V33.008H331.992C332.352 32.12 332.688 31.208 332.976 30.248L331.368 29.912C330.624 32.6 329.304 35.264 327.696 36.944C328.08 37.184 328.776 37.664 329.088 37.952C329.856 37.04 330.576 35.912 331.248 34.64H340.752ZM321.912 30.44C322.68 31.496 323.616 32.936 324.024 33.824L325.632 33.176C325.224 32.312 324.264 30.92 323.472 29.888L321.912 30.44ZM327.744 38.888H323.4C323.424 37.784 323.448 36.656 323.472 35.504H328.32V33.824H319.08V35.504H321.768C321.696 42.08 321.48 47.504 318.912 50.624C319.368 50.888 319.944 51.464 320.208 51.848C322.344 49.232 323.064 45.296 323.328 40.496H326.064C325.896 46.76 325.728 49.016 325.368 49.52C325.2 49.784 325.008 49.832 324.696 49.832C324.336 49.832 323.544 49.832 322.656 49.76C322.896 50.192 323.088 50.864 323.112 51.368C324 51.392 324.912 51.392 325.44 51.344C326.04 51.272 326.448 51.08 326.832 50.576C327.408 49.784 327.576 47.264 327.744 39.68V38.888ZM340.704 44.576V42.968H335.568C335.592 42.608 335.592 42.272 335.592 41.936V39.44H339.72V37.832H332.856C333.168 37.184 333.432 36.488 333.672 35.792L332.064 35.432C331.392 37.52 330.24 39.608 328.824 40.976C329.232 41.192 329.928 41.648 330.24 41.912C330.864 41.216 331.464 40.376 332.04 39.44H333.864V41.912C333.864 42.248 333.864 42.584 333.84 42.968H328.752V44.576H333.6C333.12 46.616 331.752 48.872 328.008 50.6C328.368 50.912 328.944 51.488 329.184 51.848C333.336 49.76 334.824 47.048 335.352 44.576H340.704ZM335.376 46.016C336.864 47.792 338.664 50.264 339.528 51.752L340.92 50.792C340.056 49.352 338.184 47 336.672 45.224L335.376 46.016Z" fill="white"/>
</g>
</g>
<defs>
<filter id="filter0_dd_205_19307" x="0" y="0" width="372" height="112" filterUnits="userSpaceOnUse" color-interpolation-filters="sRGB">
<feFlood flood-opacity="0" result="BackgroundImageFix"/>
<feColorMatrix in="SourceAlpha" type="matrix" values="0 0 0 0 0 0 0 0 0 0 0 0 0 0 0 0 0 0 127 0" result="hardAlpha"/>
<feMorphology radius="2" operator="erode" in="SourceAlpha" result="effect1_dropShadow_205_19307"/>
<feOffset dy="2"/>
<feGaussianBlur stdDeviation="2"/>
<feColorMatrix type="matrix" values="0 0 0 0 0.0627451 0 0 0 0 0.0941176 0 0 0 0 0.156863 0 0 0 0.06 0"/>
<feBlend mode="normal" in2="BackgroundImageFix" result="effect1_dropShadow_205_19307"/>
<feColorMatrix in="SourceAlpha" type="matrix" values="0 0 0 0 0 0 0 0 0 0 0 0 0 0 0 0 0 0 127 0" result="hardAlpha"/>
<feMorphology radius="2" operator="erode" in="SourceAlpha" result="effect2_dropShadow_205_19307"/>
<feOffset dy="4"/>
<feGaussianBlur stdDeviation="4"/>
<feColorMatrix type="matrix" values="0 0 0 0 0.0627451 0 0 0 0 0.0941176 0 0 0 0 0.156863 0 0 0 0.1 0"/>
<feBlend mode="normal" in2="effect1_dropShadow_205_19307" result="effect2_dropShadow_205_19307"/>
<feBlend mode="normal" in="SourceGraphic" in2="effect2_dropShadow_205_19307" result="shape"/>
</filter>
<linearGradient id="paint0_linear_205_19307" x1="5.99439" y1="101.999" x2="57.5704" y2="-83.6747" gradientUnits="userSpaceOnUse">
<stop stop-color="#42307D"/>
<stop offset="1" stop-color="#7F56D9"/>
</linearGradient>
<linearGradient id="paint1_linear_205_19307" x1="37.1825" y1="78" x2="103.388" y2="44.3081" gradientUnits="userSpaceOnUse">
<stop stop-color="#493289"/>
<stop offset="1" stop-color="#6A45C5"/>
</linearGradient>
<linearGradient id="paint2_linear_205_19307" x1="34.9997" y1="47.8997" x2="83.0027" y2="23.902" gradientUnits="userSpaceOnUse">
<stop stop-color="#53389E"/>
<stop offset="1" stop-color="#7F56D9"/>
</linearGradient>
<clipPath id="clip0_205_19307">
<path d="M6 2H366V102H66C32.8629 102 6 75.1371 6 42V2Z" fill="white"/>
</clipPath>
<clipPath id="clip1_205_19307">
<path d="M331 116C331 92.2518 350.252 73 374 73V73V116H331V116Z" fill="white"/>
</clipPath>
<clipPath id="clip2_205_19307">
<path d="M109 47C109 70.7482 89.7482 90 66 90V90L66 47L109 47V47Z" fill="white"/>
</clipPath>
<clipPath id="clip3_205_19307">
<rect width="64" height="60" fill="white" transform="translate(35 18)"/>
</clipPath>
<clipPath id="clip4_205_19307">
<path d="M64 18C64 34.0163 51.0163 47 35 47V47L35 18L64 18V18Z" fill="white"/>
</clipPath>
</defs>
</svg>
