<svg width="16" height="16" viewBox="0 0 16 16" fill="none" xmlns="http://www.w3.org/2000/svg">
<path d="M5.33551 2.66943L5.25751 2.6741C5.09534 2.69321 4.94582 2.77116 4.83732 2.89319C4.72881 3.01521 4.66886 3.17281 4.66884 3.3361V11.0561L3.14017 9.52943L3.07751 9.47343C2.94356 9.36862 2.77461 9.31896 2.60526 9.33463C2.4359 9.3503 2.27893 9.43011 2.16648 9.55771C2.05404 9.68532 1.99462 9.85108 2.00038 10.0211C2.00615 10.1911 2.07667 10.3524 2.19751 10.4721L4.86684 13.1388L4.92951 13.1941C5.05785 13.2935 5.21807 13.3427 5.38009 13.3324C5.54211 13.3221 5.6948 13.253 5.80951 13.1381L8.47351 10.4714L8.52951 10.4088C8.62892 10.2804 8.67809 10.1202 8.66778 9.95819C8.65747 9.79617 8.58839 9.64348 8.47351 9.52877L8.41017 9.47343C8.28183 9.37402 8.12161 9.32485 7.95959 9.33516C7.79757 9.34547 7.64488 9.41455 7.53017 9.52943L6.00217 11.0588V3.3361L5.99751 3.2581C5.9784 3.09593 5.90044 2.94642 5.77842 2.83791C5.6564 2.7294 5.49879 2.66946 5.33551 2.66943ZM8.33551 3.33343C8.15869 3.33343 7.98913 3.40367 7.8641 3.5287C7.73908 3.65372 7.66884 3.82329 7.66884 4.0001C7.66884 4.17691 7.73908 4.34648 7.8641 4.4715C7.98913 4.59653 8.15869 4.66677 8.33551 4.66677H13.6688C13.8457 4.66677 14.0152 4.59653 14.1402 4.4715C14.2653 4.34648 14.3355 4.17691 14.3355 4.0001C14.3355 3.82329 14.2653 3.65372 14.1402 3.5287C14.0152 3.40367 13.8457 3.33343 13.6688 3.33343H8.33551ZM8.33551 5.33343C8.15869 5.33343 7.98913 5.40367 7.8641 5.5287C7.73908 5.65372 7.66884 5.82329 7.66884 6.0001C7.66884 6.17691 7.73908 6.34648 7.8641 6.4715C7.98913 6.59653 8.15869 6.66677 8.33551 6.66677H11.6688C11.8457 6.66677 12.0152 6.59653 12.1402 6.4715C12.2653 6.34648 12.3355 6.17691 12.3355 6.0001C12.3355 5.82329 12.2653 5.65372 12.1402 5.5287C12.0152 5.40367 11.8457 5.33343 11.6688 5.33343H8.33551ZM7.66884 8.0001C7.66884 7.82329 7.73908 7.65372 7.8641 7.5287C7.98913 7.40367 8.15869 7.33343 8.33551 7.33343H9.66884C9.84565 7.33343 10.0152 7.40367 10.1402 7.5287C10.2653 7.65372 10.3355 7.82329 10.3355 8.0001C10.3355 8.17691 10.2653 8.34648 10.1402 8.4715C10.0152 8.59653 9.84565 8.66677 9.66884 8.66677H8.33551C8.15869 8.66677 7.98913 8.59653 7.8641 8.4715C7.73908 8.34648 7.66884 8.17691 7.66884 8.0001Z" fill="#7550CC"/>
</svg>
