<svg width="16" height="16" viewBox="0 0 16 16" fill="none" xmlns="http://www.w3.org/2000/svg">
<rect width="16" height="16" rx="2" fill="#7550CC"/>
<path fill-rule="evenodd" clip-rule="evenodd" d="M2.38746 9.22917C1.87085 8.69282 1.87085 7.82322 2.38746 7.28687C2.90408 6.75052 3.74169 6.75052 4.25831 7.28687L5.94207 9.03494C6.04539 9.14221 6.21292 9.14221 6.31624 9.03494L11.7417 3.40226C12.2583 2.86591 13.0959 2.86591 13.6125 3.40226C14.1292 3.93862 14.1292 4.80821 13.6125 5.34457L6.31624 12.9195C6.21292 13.0268 6.04539 13.0268 5.94207 12.9195L2.38746 9.22917Z" fill="white"/>
<path d="M2 1H14V-1H2V1ZM15 2V14H17V2H15ZM14 15H2V17H14V15ZM1 14V2H-1V14H1ZM2 15C1.44772 15 1 14.5523 1 14H-1C-1 15.6569 0.343146 17 2 17V15ZM15 14C15 14.5523 14.5523 15 14 15V17C15.6569 17 17 15.6569 17 14H15ZM14 1C14.5523 1 15 1.44772 15 2H17C17 0.343146 15.6569 -1 14 -1V1ZM2 -1C0.343146 -1 -1 0.343146 -1 2H1C1 1.44772 1.44772 1 2 1V-1Z" fill="#7550CC"/>
</svg>
