<svg width="16" height="16" viewBox="0 0 16 16" fill="none" xmlns="http://www.w3.org/2000/svg">
<path d="M8.01463 6.00071C8.1704 6.00041 8.32135 6.05466 8.44129 6.15404L12.4413 9.48738C12.5774 9.60054 12.6631 9.76314 12.6793 9.93943C12.6956 10.1157 12.6411 10.2912 12.528 10.4274C12.4148 10.5635 12.2522 10.6491 12.0759 10.6654C11.8996 10.6816 11.7241 10.6272 11.588 10.514L8.01463 7.52738L4.44129 10.4074C4.3731 10.4628 4.29464 10.5041 4.21041 10.5291C4.12619 10.554 4.03786 10.5621 3.95051 10.5528C3.86315 10.5435 3.7785 10.517 3.70141 10.4749C3.62432 10.4328 3.55631 10.3759 3.50129 10.3074C3.44024 10.2388 3.394 10.1584 3.36547 10.0712C3.33694 9.98391 3.32674 9.89171 3.3355 9.80034C3.34427 9.70896 3.3718 9.62038 3.41639 9.54014C3.46098 9.45991 3.52166 9.38974 3.59463 9.33404L7.59463 6.11404C7.71802 6.03037 7.86589 5.99046 8.01463 6.00071V6.00071Z" fill="#7550CC"/>
</svg>
